<svg width="155" height="68" viewBox="0 0 155 68" fill="none" xmlns="http://www.w3.org/2000/svg">
<path d="M15.7475 16.9288C16.6406 17.7838 16.6958 19.3664 16.731 19.7214C16.7759 20.1742 16.9237 21.6657 15.8279 22.6497C15.255 23.1643 14.6375 23.5092 13.7373 23.1671C12.6112 22.7392 11.9413 21.4104 11.7168 20.1163C11.4861 18.7866 11.6615 17.0754 12.5036 16.3998C13.4273 15.6588 14.8004 16.0222 15.7475 16.9288Z" fill="#0CABFF"/>
<path d="M23.9244 10.4228C23.7294 10.4025 20.2433 17.3473 19.1651 20.2985C18.5868 21.8814 17.5177 23.326 16.9315 23.7881C16.0167 24.5092 14.5305 23.9659 12.6085 24.6351C10.7982 25.2655 9.95776 25.9883 8.74663 27.6566C5.43053 32.2244 4.86922 39.0737 5.22212 39.1901C5.45856 39.2681 5.96771 36.0649 8.56955 32.0168C10.2572 29.391 10.6217 29.254 10.837 29.3093C11.7634 29.5475 11.6152 33.7808 10.9222 37.1992C10.4843 39.3589 9.41098 41.7181 8.92365 43.0626C6.35037 50.1618 5.78384 54.2639 5.85643 54.2778C5.96996 54.2996 11.2377 42.1426 14.0601 39.6472C14.1414 39.5597 14.24 39.4896 14.3496 39.4413C14.4592 39.3929 14.5777 39.3673 14.6976 39.3659C15.8801 39.4735 16.3144 43.1816 17.3505 48.7342C17.9552 51.9745 18.1128 53.897 18.4205 55.1099C18.6834 56.1457 19.0455 50.8572 18.984 47.0281C18.9001 41.8022 18.5667 40.4799 18.417 36.9397C18.2022 31.8583 18.8763 27.8708 19.1964 26.8127C20.0619 23.9512 20.4524 23.0019 21.3057 20.1914C22.1779 17.3184 24.1979 10.4514 23.9244 10.4228Z" fill="#0CABFF"/>
<path d="M20.6146 2.8524C20.6146 2.8524 21.8352 3.70422 22.1758 4.66375C22.3446 5.03363 22.4027 5.44386 22.3432 5.84559C22.2922 6.11648 22.1724 6.36996 21.9951 6.58205C21.8171 6.77584 21.5981 6.92817 21.3539 7.0281C21.1096 7.12804 20.8461 7.17313 20.5823 7.16013C19.2342 7.04989 18.0798 4.51978 18.1605 2.35328C18.2004 1.28143 19.2451 0 19.2451 0C19.0697 0.981978 19.0913 1.98864 19.3084 2.96235C19.6115 4.46581 20.3457 4.35705 20.5614 4.38895C20.9727 4.44978 20.6146 2.8524 20.6146 2.8524Z" fill="#FFC331"/>
<path d="M22.4308 6.91162L24.229 13.4339L20.5939 7.75197L22.4308 6.91162Z" fill="#3B3B3B"/>
<path d="M20.7596 8.827L23.1915 7.75476L22.7444 6.7554L20.3125 7.82764L20.7596 8.827Z" fill="#3B3B3B"/>
<path d="M2.34814 55.2328L8.0529 53.8179C8.0529 53.8179 8.79476 54.2672 8.64218 55.7945C8.61121 56.1045 8.36246 57.4732 8.36246 57.4732L2.4753 58.1296C2.55508 57.7255 2.60606 57.3164 2.62787 56.9052C2.65173 56.5602 2.64322 56.2137 2.60245 55.8702C2.55391 55.6391 2.49023 55.4115 2.41175 55.1886" fill="white" fill-opacity="0.63"/>
<path d="M2.33435 55.1191L8.01956 53.7019L23.161 54.1743C23.161 54.1743 23.6114 54.1901 23.6114 55.9851C23.6114 57.7802 23.161 58.0794 23.161 58.0794L8.08692 57.8881L2.35874 58.3644L2.33435 58.1581L8.0359 57.4671L8.20487 57.4023C8.20487 57.4023 8.53797 57.3314 8.53797 55.6426C8.53797 53.9539 8.14538 53.9302 8.14538 53.9302C6.21954 54.3776 4.68627 54.7305 2.76041 55.1778L2.5895 55.2175L2.33435 55.2647V55.1191Z" fill="#0CABFF"/>
<path d="M1.84393 58.5522L11.4149 57.7517L12.2029 60.2096L11.0771 62.7092L1.62073 62.9612C1.62073 62.9612 2.03376 61.607 1.98355 60.6307C1.93333 59.6544 1.84393 58.5522 1.84393 58.5522Z" fill="white" fill-opacity="0.63"/>
<path d="M1.27831 58.3277L11.479 57.4974L24.0252 58.0795C24.5641 58.7373 24.8731 59.5512 24.9056 60.3985C24.9088 61.6467 24.2436 63.0092 24.0014 62.8745L1.22668 63.2996L1.34966 62.9926L10.5103 62.7092C11.7476 62.6383 11.9855 60.2645 11.9855 60.2645C11.9855 60.2645 11.7649 58.0343 11.2836 57.9406C10.562 57.8001 1.29017 58.6584 1.29017 58.6584L1.27831 58.3277Z" fill="#FFC331"/>
<path d="M0.300293 63.6145C0.567433 64.2014 0.677108 64.847 0.618629 65.4884C0.555169 66.6773 0.300293 67.0169 0.300293 67.0169L8.13747 67.6536C8.56383 67.1366 8.8285 66.5072 8.89888 65.8427C8.99405 64.772 8.32781 63.2997 8.32781 63.2997L0.300293 63.6145Z" fill="white" fill-opacity="0.63"/>
<path d="M0 63.3705L8.29556 63.1677L22.5407 62.9769C22.9591 63.6522 23.1636 64.4366 23.1276 65.2286C23.0836 65.9833 22.9231 66.7268 22.6517 67.4331L15.1646 67.7638L8.24854 68L0.17448 67.2914V67.0079L8.18505 67.5748C8.18505 67.5748 8.78785 66.4568 8.74026 65.6695C8.6421 64.9024 8.48299 64.1442 8.26439 63.402L0 63.6225V63.3705Z" fill="#0CABFF"/>
<path d="M44.2353 18.2371H41.2433C41.0286 17.3247 41.0286 16.3754 41.2433 15.463H50.398C50.4454 15.7238 50.4813 15.9668 50.5056 16.192C50.5285 16.4047 50.5404 16.6184 50.5413 16.8323C50.5333 17.3038 50.4853 17.7737 50.398 18.2371H47.4061V28.1957C46.8859 28.2915 46.3586 28.3451 45.8296 28.3559C45.2946 28.3469 44.7613 28.2933 44.2353 28.1957V18.2371Z" fill="#3B3B3B"/>
<path d="M51.8848 15.4983C52.2074 15.4513 52.5 15.4158 52.7624 15.3918C53.0249 15.368 53.2579 15.3561 53.4613 15.3561C53.6764 15.3561 53.9182 15.368 54.1868 15.3918C54.4554 15.4156 54.745 15.4511 55.0555 15.4983V20.2111H58.2264V15.4983C58.549 15.4513 58.8386 15.4158 59.0952 15.3918C59.352 15.368 59.588 15.3561 59.8029 15.3561C60.018 15.3561 60.2598 15.368 60.5284 15.3918C60.797 15.4156 61.0866 15.4511 61.3972 15.4983V28.1957C60.8769 28.2915 60.3497 28.345 59.8207 28.3558C59.2856 28.3468 58.7524 28.2933 58.2264 28.1957V23.003H55.0555V28.1957C54.5353 28.2915 54.0081 28.345 53.4791 28.3558C52.9441 28.3468 52.4108 28.2933 51.8848 28.1957V15.4983Z" fill="#3B3B3B"/>
<path d="M63.5471 15.463H71.1069C71.1542 15.7238 71.1901 15.9668 71.2144 16.192C71.2373 16.4047 71.2493 16.6184 71.2501 16.8323C71.2422 17.3038 71.1942 17.7737 71.1069 18.2371H66.7179V20.1932H70.1752C70.2753 20.6491 70.3295 21.1137 70.3368 21.5803C70.3308 22.0469 70.2767 22.5117 70.1752 22.9674H66.7179V25.4926H71.2144C71.3156 25.9364 71.3695 26.3894 71.3755 26.8443C71.3717 27.3169 71.3178 27.7878 71.2144 28.2491H63.5471V15.463Z" fill="#3B3B3B"/>
<path d="M41.8887 33.2816C42.1628 33.2462 42.5838 33.1959 43.1514 33.1306C43.8627 33.0585 44.5775 33.0258 45.2924 33.0327C45.9354 33.0337 46.5768 33.0933 47.2088 33.2105C47.8288 33.3196 48.422 33.546 48.9558 33.8774C49.4904 34.2199 49.9257 34.695 50.2186 35.2557C50.5692 35.975 50.7353 36.7692 50.7023 37.5677C50.726 38.2863 50.5947 39.0017 50.3172 39.6659C50.0895 40.1853 49.7394 40.6429 49.2963 40.9999C48.8675 41.3341 48.3733 41.5763 47.8452 41.711C47.2985 41.8538 46.7354 41.9255 46.1701 41.9245C45.9427 41.9245 45.7128 41.9156 45.4802 41.8977C45.3147 41.8892 45.15 41.8684 44.9876 41.8354V45.979C44.6772 46.0382 44.3965 46.0797 44.1456 46.1035C43.8948 46.1273 43.6619 46.1392 43.4468 46.1392C42.9238 46.1288 42.4027 46.0753 41.8887 45.979V33.2816ZM44.9876 39.2925C45.0863 39.3239 45.1888 39.3418 45.2924 39.3458C45.4356 39.3577 45.5848 39.3636 45.7399 39.3635C46.2003 39.3829 46.6502 39.2234 46.9943 38.9191C47.3164 38.6228 47.4776 38.1724 47.4779 37.5677C47.4865 37.2613 47.4347 36.9562 47.3253 36.6696C47.2354 36.4428 47.091 36.2413 46.9046 36.0826C46.7221 35.933 46.5077 35.8266 46.2777 35.7715C46.0315 35.7114 45.7788 35.6814 45.5253 35.6824H45.274C45.1783 35.6825 45.0826 35.6885 44.9876 35.7004V39.2925Z" fill="#0CABFF"/>
<path d="M52.3684 33.2816C52.953 33.2224 53.4934 33.1662 53.9895 33.1129C54.5102 33.0582 55.0334 33.0314 55.557 33.0327C56.2183 33.0331 56.8781 33.0957 57.5275 33.2194C58.1471 33.3302 58.7418 33.55 59.2834 33.8685C59.8 34.1802 60.2308 34.614 60.5373 35.1312C60.8814 35.7507 61.0486 36.4517 61.021 37.1586C61.0259 37.5578 60.9747 37.9558 60.8688 38.341C60.7771 38.6674 60.6446 38.9811 60.4743 39.2748C60.3247 39.5325 60.1443 39.7713 59.9371 39.9861C59.7568 40.1728 59.5621 40.3452 59.3548 40.5017L62.1494 45.979C61.863 46.0266 61.5494 46.0622 61.2088 46.0858C60.8688 46.1093 60.5614 46.1211 60.2865 46.1212C60.0474 46.1212 59.7697 46.1094 59.4534 46.0858C59.1738 46.0667 58.8956 46.0311 58.6203 45.979L56.0764 40.164L56.2375 40.0749C56.4127 39.9805 56.5727 39.8606 56.7122 39.7192C56.8963 39.5401 57.0587 39.3401 57.196 39.1235C57.3509 38.8809 57.4771 38.6214 57.5721 38.3501C57.6739 38.0646 57.7255 37.7638 57.7248 37.4609C57.7248 36.8682 57.5576 36.4354 57.2233 36.1626C56.8731 35.8847 56.4348 35.7397 55.9867 35.7535C55.885 35.7526 55.7833 35.7586 55.6824 35.7715C55.6275 35.7766 55.5734 35.7885 55.5214 35.8069V45.979C55.007 46.0741 54.4858 46.1276 53.9627 46.1391C53.4277 46.1302 52.8944 46.0766 52.3684 45.979V33.2816Z" fill="#0CABFF"/>
<path d="M63.4039 33.2817C63.726 33.2347 64.0186 33.1992 64.2816 33.1752C64.5441 33.1514 64.777 33.1395 64.9804 33.1395C65.195 33.1395 65.4368 33.1514 65.7059 33.1752C65.9745 33.199 66.2641 33.2345 66.5747 33.2817V45.9791C66.0545 46.0748 65.5272 46.1284 64.9982 46.1392C64.4632 46.1302 63.9299 46.0767 63.4039 45.9791V33.2817Z" fill="#0CABFF"/>
<path d="M69.1002 33.2816C69.351 33.2462 69.6227 33.2137 69.9155 33.184C70.1863 33.1555 70.4584 33.1407 70.7307 33.1395C70.991 33.1407 71.2511 33.1556 71.5098 33.184C71.7901 33.2136 72.0498 33.2461 72.2888 33.2816L74.8327 39.8971L77.4663 33.2816C77.7054 33.2462 77.9473 33.2137 78.1919 33.184C78.4326 33.1546 78.6749 33.1397 78.9174 33.1395C79.1748 33.1399 79.4319 33.1548 79.6875 33.184C79.9506 33.2136 80.2075 33.2461 80.4583 33.2816L81.0673 45.979C80.8762 46.0147 80.6643 46.0503 80.4315 46.0858C80.1256 46.1258 79.8172 46.1437 79.5087 46.1392C79.0092 46.1307 78.5116 46.0771 78.0219 45.979L77.7712 38.6168L75.8001 43.4717C75.5856 43.5071 75.3706 43.5367 75.1554 43.5605C74.9591 43.5832 74.7617 43.5951 74.5641 43.5962C74.3853 43.5962 74.1997 43.5871 74.0091 43.5694C73.81 43.5503 73.6124 43.5177 73.4178 43.4717L71.6619 38.6879L71.4652 45.979C70.9945 46.0824 70.5141 46.1361 70.032 46.1392C69.5442 46.1318 69.0583 46.0781 68.5808 45.979L69.1002 33.2816Z" fill="#0CABFF"/>
<path d="M86.1011 33.264C86.4114 33.2286 86.701 33.199 86.9698 33.1752C87.2384 33.1514 87.5102 33.1395 87.7851 33.1395C88.0119 33.1395 88.2597 33.1514 88.5285 33.1752C88.7971 33.199 89.1047 33.2286 89.4513 33.264L93.4101 45.9791C92.8179 46.0782 92.219 46.1317 91.6185 46.1392C91.3794 46.1392 91.1403 46.1273 90.9024 46.1035C90.6633 46.0797 90.4064 46.0442 90.1317 45.9968L89.4513 43.5249C89.1365 43.6155 88.8164 43.6869 88.4928 43.7384C87.9144 43.8301 87.3251 43.8331 86.7458 43.7473C86.4438 43.7026 86.1448 43.6402 85.8503 43.5606L85.1877 45.9968C84.9124 46.0441 84.6615 46.0797 84.4349 46.1035C84.2148 46.127 83.9936 46.1389 83.7723 46.1392C83.5239 46.1372 83.2757 46.1224 83.0289 46.0947C82.748 46.0651 82.4345 46.0207 82.0883 45.9614L86.1011 33.264ZM87.6953 36.6074L86.495 41.1775C86.6979 41.2369 86.8896 41.2842 87.0685 41.3199C87.2514 41.3558 87.4375 41.3737 87.624 41.3733C87.8249 41.3734 88.0256 41.3585 88.2242 41.3288C88.4327 41.2967 88.6391 41.2522 88.8422 41.1955L87.6953 36.6074Z" fill="#0CABFF"/>
<path d="M94.5747 33.2816C95.1593 33.2224 95.6996 33.1662 96.1957 33.1129C96.7164 33.0582 97.2397 33.0314 97.7633 33.0327C98.4246 33.0331 99.0844 33.0957 99.7338 33.2194C100.353 33.3302 100.948 33.55 101.49 33.8685C102.006 34.1802 102.437 34.614 102.744 35.1312C103.088 35.7507 103.255 36.4517 103.227 37.1586C103.232 37.5578 103.181 37.9558 103.075 38.341C102.983 38.6674 102.851 38.9811 102.681 39.2748C102.531 39.5325 102.351 39.7713 102.143 39.9861C101.963 40.1728 101.768 40.3452 101.561 40.5017L104.356 45.979C104.069 46.0266 103.756 46.0622 103.415 46.0858C103.075 46.1093 102.768 46.1211 102.493 46.1212C102.254 46.1212 101.976 46.1094 101.66 46.0858C101.38 46.0667 101.102 46.0311 100.827 45.979L98.2827 40.164L98.4438 40.0749C98.619 39.9805 98.779 39.8606 98.9185 39.7192C99.1026 39.5401 99.265 39.3401 99.4022 39.1235C99.5571 38.8809 99.6834 38.6214 99.7783 38.3501C99.8801 38.0646 99.9318 37.7638 99.9311 37.4609C99.9311 36.8682 99.7639 36.4354 99.4296 36.1626C99.0794 35.8847 98.641 35.7397 98.193 35.7535C98.0912 35.7526 97.9896 35.7586 97.8887 35.7715C97.8338 35.7766 97.7797 35.7885 97.7277 35.8069V45.979C97.2133 46.0741 96.6921 46.1276 96.169 46.1391C95.634 46.1302 95.1007 46.0766 94.5747 45.979V33.2816Z" fill="#0CABFF"/>
<path d="M107.616 41.4443C107.306 40.804 106.98 40.1372 106.64 39.4438C106.3 38.7501 105.96 38.0565 105.619 37.363C105.279 36.6696 104.941 35.9761 104.607 35.2825C104.272 34.5888 103.95 33.9219 103.64 33.2816C103.842 33.2462 104.117 33.2137 104.464 33.184C104.81 33.1544 105.138 33.1396 105.449 33.1395C105.7 33.1395 105.978 33.1543 106.282 33.184C106.586 33.2136 106.852 33.2461 107.079 33.2816L109.282 38.2254L111.397 33.2816C111.671 33.2346 111.958 33.1991 112.257 33.1752C112.555 33.1514 112.859 33.1395 113.17 33.1395C113.373 33.1395 113.636 33.1543 113.958 33.184C114.281 33.2136 114.555 33.2462 114.783 33.2817L110.788 41.4444V45.979C110.267 46.0748 109.74 46.1284 109.211 46.1392C108.676 46.1302 108.142 46.0766 107.616 45.979V41.4443Z" fill="#0CABFF"/>
<path d="M118.777 33.2996C119.111 33.2404 119.433 33.1989 119.744 33.1751C120.055 33.1513 120.329 33.1394 120.568 33.1394C120.795 33.1394 121.031 33.1484 121.276 33.1662C121.556 33.1887 121.834 33.2272 122.109 33.2816L123.596 41.4086C123.894 40.1048 124.193 38.7444 124.492 37.3275C124.79 35.9108 125.082 34.5622 125.369 33.2816C125.585 33.2462 125.823 33.2136 126.086 33.1839C126.354 33.154 126.623 33.1391 126.892 33.1394C127.138 33.1399 127.383 33.1547 127.627 33.1839C127.878 33.2135 128.093 33.2461 128.272 33.2816L130.135 41.4977L131.621 33.2816C131.882 33.2296 132.145 33.1911 132.41 33.1662C132.625 33.1483 132.846 33.1393 133.072 33.1394C133.312 33.1394 133.562 33.1484 133.825 33.1662C134.126 33.1888 134.425 33.2273 134.721 33.2816L131.64 45.979C131.46 46.0146 131.23 46.0502 130.95 46.0857C130.644 46.1227 130.335 46.1406 130.027 46.1391C129.701 46.1395 129.374 46.1187 129.051 46.0769C128.734 46.0351 128.522 46.003 128.415 45.979L126.713 38.6167L124.904 45.979C124.796 46.003 124.596 46.0351 124.303 46.0769C123.694 46.1568 123.077 46.1598 122.467 46.0857C122.204 46.0501 121.983 46.0145 121.805 45.979L118.777 33.2996Z" fill="#0CABFF"/>
<path d="M138.071 33.264C138.381 33.2286 138.671 33.199 138.94 33.1752C139.208 33.1514 139.48 33.1395 139.754 33.1395C139.981 33.1395 140.229 33.1514 140.498 33.1752C140.767 33.199 141.074 33.2286 141.421 33.264L145.38 45.9791C144.788 46.0781 144.189 46.1317 143.588 46.1392C143.349 46.1392 143.11 46.1273 142.872 46.1035C142.633 46.0797 142.376 46.0442 142.102 45.9968L141.421 43.5249C141.106 43.6157 140.786 43.687 140.462 43.7384C139.884 43.8301 139.295 43.8331 138.716 43.7473C138.414 43.7026 138.114 43.6402 137.82 43.5606L137.157 45.9968C136.882 46.0441 136.632 46.0797 136.405 46.1035C136.185 46.127 135.963 46.1389 135.742 46.1392C135.493 46.1372 135.245 46.1223 134.998 46.0947C134.717 46.0651 134.404 46.0207 134.058 45.9614L138.071 33.264ZM139.665 36.6074L138.465 41.1775C138.668 41.2369 138.859 41.2844 139.038 41.3199C139.221 41.3558 139.407 41.3736 139.593 41.3733C139.794 41.3734 139.995 41.3585 140.194 41.3288C140.402 41.2968 140.609 41.2523 140.812 41.1954L139.665 36.6074Z" fill="#0CABFF"/>
<path d="M147.834 41.4443C147.523 40.804 147.198 40.1372 146.858 39.4438C146.517 38.7501 146.177 38.0565 145.837 37.363C145.496 36.6696 145.159 35.9761 144.824 35.2825C144.49 34.5888 144.168 33.9219 143.857 33.2816C144.06 33.2462 144.335 33.2137 144.681 33.184C145.027 33.1544 145.356 33.1396 145.666 33.1395C145.917 33.1395 146.195 33.1543 146.499 33.184C146.804 33.2136 147.07 33.2462 147.297 33.2816L149.5 38.2254L151.614 33.2816C151.889 33.2346 152.175 33.1991 152.474 33.1752C152.773 33.1514 153.077 33.1395 153.388 33.1395C153.591 33.1395 153.853 33.1543 154.176 33.184C154.498 33.2136 154.773 33.2462 155 33.2817L151.005 41.4444V45.979C150.485 46.0748 149.957 46.1284 149.428 46.1392C148.893 46.1302 148.36 46.0766 147.834 45.979V41.4443Z" fill="#0CABFF"/>
<path d="M98.3164 57.8919C98.9325 57.5727 99.5931 57.3467 100.276 57.2215C100.875 57.1163 101.474 57.0123 102.072 56.9023C102.783 56.7715 103.492 56.6267 104.205 56.5051C104.488 56.4568 104.778 56.4584 105.064 56.4307C105.465 56.392 105.865 56.348 106.265 56.3044C106.621 56.2655 106.977 56.2196 107.334 56.1847C107.9 56.1295 108.466 56.076 109.032 56.0309C109.771 55.9721 110.51 55.9185 111.25 55.87C111.72 55.8395 112.191 55.8241 112.655 55.7798C112.685 55.762 112.716 55.7294 112.747 55.7288C112.945 55.7249 113.143 55.7288 113.34 55.7286C113.682 55.7283 114.023 55.726 114.365 55.7268C114.422 55.7269 114.48 55.7382 114.564 55.7472C114.563 55.745 114.577 55.7683 114.585 55.78C114.659 55.7677 114.734 55.7595 114.81 55.7552C114.957 55.7522 115.104 55.7564 115.251 55.768C115.407 55.7829 115.561 55.8154 115.716 55.8387C115.759 55.8451 115.802 55.8473 115.844 55.8499C116.48 55.8875 117.115 55.9249 117.751 55.962C117.898 55.9705 118.046 55.9699 118.192 55.9826C118.285 55.9946 118.377 56.0113 118.468 56.0327C118.506 56.0424 118.545 56.05 118.584 56.0554C118.913 56.0793 119.243 56.0975 119.572 56.1262C119.711 56.1628 119.853 56.1832 119.997 56.1867C120.186 56.1552 120.336 56.3055 120.519 56.2669C120.548 56.2608 120.586 56.3026 120.62 56.3223L120.611 56.3604C120.51 56.3683 120.408 56.3836 120.306 56.3825C120.101 56.3805 119.895 56.3671 119.689 56.3642C119.639 56.3699 119.59 56.3818 119.544 56.3996C119.469 56.2921 119.351 56.3911 119.252 56.3572C119.139 56.3295 119.024 56.3117 118.908 56.304C118.96 56.3572 119.023 56.3987 119.093 56.4257C119.163 56.4527 119.237 56.4645 119.312 56.4605C119.357 56.4678 119.401 56.4815 119.441 56.5014C119.491 56.4929 119.542 56.4895 119.593 56.4912C119.831 56.5236 120.069 56.5604 120.307 56.5971C120.35 56.6038 120.392 56.6171 120.431 56.6364C120.238 56.6752 120.038 56.6725 119.845 56.6285C119.812 56.6155 119.777 56.6076 119.741 56.6051C119.332 56.6118 118.923 56.5899 118.517 56.5396C117.942 56.481 117.362 56.4556 116.784 56.4444C115.899 56.4271 115.014 56.4171 114.129 56.4348C112.849 56.4603 111.569 56.5056 110.289 56.5581C109.653 56.5841 109.018 56.6295 108.384 56.694C107.475 56.7874 106.567 56.8876 105.663 57.0213C104.796 57.1497 103.931 57.3082 103.071 57.4835C102.081 57.6853 101.097 57.9195 100.11 58.1407C99.5622 58.2636 99.015 58.3908 98.4666 58.5116C98.3239 58.543 98.2929 58.5119 98.2808 58.357C98.2465 58.3591 98.2116 58.3592 98.1772 58.3637C98.1139 58.372 98.0602 58.3776 98.0309 58.2933C98.014 58.2621 98.0101 58.2256 98.02 58.1916C98.0299 58.1575 98.0528 58.1287 98.0839 58.1113C98.1327 58.0798 98.185 58.0537 98.2312 58.0186C98.2647 57.9893 98.2959 57.9574 98.3245 57.9233L98.3164 57.8919Z" fill="#0CABFF"/>
<path d="M42.6096 54.0177C42.6018 54.008 42.5963 53.9966 42.5934 53.9845C42.5906 53.9724 42.5906 53.9597 42.5933 53.9476L42.8137 52.1748C42.8144 52.1616 42.8119 52.1484 42.8067 52.1363L41.8299 49.6711C41.8256 49.6609 41.8235 49.6499 41.8238 49.6388C41.8238 49.5833 41.854 49.5556 41.9145 49.5556H42.3606C42.3834 49.5538 42.4061 49.5599 42.4249 49.5728C42.4437 49.5857 42.4574 49.6047 42.4638 49.6264L43.1822 51.4686C43.1954 51.4863 43.2078 51.4863 43.221 51.4686L44.3978 49.6264C44.41 49.6047 44.4279 49.5866 44.4497 49.5741C44.4714 49.5616 44.4961 49.5552 44.5212 49.5556H44.9673C45.0146 49.5556 45.0386 49.5748 45.0386 49.6134C45.0372 49.6339 45.0306 49.6538 45.0193 49.6711L43.4343 52.1363C43.4295 52.1414 43.4251 52.1468 43.4211 52.1524C43.4171 52.1592 43.415 52.1669 43.4149 52.1748L43.1954 53.9476C43.1925 53.9738 43.181 53.9984 43.1628 54.0177C43.1533 54.0267 43.1422 54.0337 43.1299 54.0382C43.1176 54.0427 43.1045 54.0447 43.0914 54.0439H42.6779C42.6653 54.0449 42.6526 54.0431 42.6408 54.0385C42.6289 54.034 42.6183 54.0269 42.6096 54.0177V54.0177Z" fill="#3B3B3B"/>
<path d="M45.2389 53.8605C45.0277 53.6936 44.8868 53.4544 44.844 53.1898C44.8166 53.0479 44.8036 52.9037 44.8052 52.7593C44.8053 52.6414 44.8118 52.5237 44.8245 52.4065C44.855 52.1409 44.9248 51.8811 45.0317 51.6356C45.1482 51.3634 45.3441 51.1319 45.5942 50.971C45.849 50.8095 46.146 50.726 46.4483 50.7308C46.7209 50.7213 46.9883 50.8062 47.2048 50.971C47.4109 51.1371 47.5509 51.3705 47.5996 51.6295C47.6269 51.7646 47.6399 51.9022 47.6384 52.04C47.6383 52.1601 47.6318 52.2801 47.619 52.3996C47.5929 52.6723 47.523 52.939 47.4119 53.1898C47.294 53.4629 47.0986 53.696 46.8494 53.8605C46.6038 54.0209 46.3156 54.1048 46.0216 54.1016C45.7407 54.112 45.4646 54.027 45.2389 53.8605V53.8605ZM46.5484 53.4239C46.6907 53.3197 46.8015 53.1788 46.8688 53.0165C46.9404 52.8216 46.988 52.6189 47.0108 52.4127C47.0279 52.224 47.0372 52.0916 47.0372 52.0145C47.0363 51.9481 47.0319 51.8818 47.024 51.8159C46.9992 51.6583 46.9202 51.5141 46.8005 51.4077C46.6775 51.3085 46.5222 51.2573 46.3638 51.2637C46.1972 51.2618 46.0343 51.3122 45.8983 51.4077C45.7544 51.5113 45.6423 51.6526 45.5748 51.8159C45.5027 52.0082 45.455 52.2087 45.4328 52.4127C45.4198 52.5301 45.4134 52.6481 45.4134 52.7662C45.4134 52.8386 45.4173 52.9217 45.4266 53.0165C45.4485 53.1731 45.5264 53.3166 45.6462 53.4208C45.7696 53.5218 45.9261 53.5744 46.086 53.5686C46.2518 53.5706 46.4138 53.5199 46.5484 53.4239Z" fill="#3B3B3B"/>
<path d="M50.5266 50.8077C50.5448 50.7906 50.569 50.7812 50.5941 50.7816H51.0084C51.02 50.781 51.0315 50.7831 51.0421 50.7877C51.0527 50.7922 51.0621 50.7991 51.0697 50.8077C51.0773 50.8176 51.0827 50.8289 51.0855 50.841C51.0884 50.8531 51.0885 50.8657 51.086 50.8778L50.7043 53.9537C50.7014 53.9802 50.6899 54.005 50.6717 54.0245C50.6621 54.0333 50.6509 54.0401 50.6387 54.0445C50.6264 54.0488 50.6134 54.0507 50.6004 54.05H50.1931C50.1806 54.0509 50.1681 54.0492 50.1564 54.0448C50.1448 54.0404 50.1342 54.0335 50.1256 54.0245C50.1176 54.0148 50.1119 54.0033 50.1091 53.991C50.1063 53.9787 50.1064 53.9659 50.1093 53.9537L50.1349 53.7612C50.1349 53.7311 50.1217 53.7265 50.0961 53.7481C49.9972 53.8636 49.8728 53.9549 49.7326 54.015C49.5924 54.0751 49.4402 54.1023 49.2877 54.0946C49.0254 54.1037 48.7685 54.0196 48.5631 53.8574C48.4659 53.776 48.3891 53.6733 48.3387 53.5575C48.2882 53.4416 48.2654 53.3158 48.2722 53.1897C48.2715 53.1383 48.2736 53.0869 48.2784 53.0357L48.5437 50.8778C48.5468 50.851 48.5595 50.8262 48.5794 50.8077C48.5999 50.7898 48.6266 50.7804 48.6539 50.7816H49.0612C49.0738 50.7806 49.0865 50.7825 49.0983 50.787C49.1101 50.7915 49.1207 50.7986 49.1294 50.8077C49.1371 50.8176 49.1425 50.8289 49.1453 50.841C49.1481 50.8531 49.1482 50.8657 49.1457 50.8778L48.8998 52.8432C48.8944 52.8856 48.8921 52.9283 48.8929 52.971C48.8836 53.1293 48.9371 53.2849 49.0418 53.4046C49.0978 53.4591 49.1647 53.5013 49.2382 53.5283C49.3118 53.5554 49.3902 53.5668 49.4685 53.5617C49.6634 53.5682 49.8531 53.4978 49.996 53.3661C50.1401 53.2275 50.2286 53.0417 50.245 52.8432L50.4909 50.8778C50.4937 50.8509 50.5065 50.8259 50.5266 50.8077V50.8077Z" fill="#3B3B3B"/>
<path d="M53.7122 50.8201C53.7255 50.8267 53.7367 50.8368 53.7447 50.8493C53.7526 50.8618 53.7569 50.8762 53.7571 50.891C53.7548 50.9086 53.7504 50.926 53.744 50.9426L53.6082 51.36C53.6072 51.3778 53.599 51.3945 53.5857 51.4065C53.5723 51.4184 53.5548 51.4247 53.5368 51.4239C53.5195 51.4243 53.5023 51.4222 53.4856 51.4178C53.4191 51.3945 53.349 51.3835 53.2785 51.3854C53.2461 51.3848 53.2136 51.3868 53.1815 51.3916C52.9924 51.3987 52.8122 51.4727 52.6734 51.6003C52.5278 51.7334 52.4369 51.9153 52.4181 52.1109L52.1854 53.9537C52.1825 53.9802 52.1711 54.0051 52.1528 54.0246C52.1434 54.0333 52.1322 54.0401 52.1201 54.0444C52.1079 54.0488 52.0951 54.0507 52.0822 54.05H51.6679C51.6554 54.0509 51.6427 54.0491 51.631 54.0447C51.6192 54.0403 51.6085 54.0335 51.5997 54.0246C51.592 54.0147 51.5866 54.0032 51.5839 53.9909C51.5812 53.9787 51.5812 53.966 51.5841 53.9537L51.9658 50.8779C51.9683 50.8511 51.9808 50.8261 52.0007 50.8078C52.0212 50.7898 52.0479 50.7805 52.0752 50.7816H52.4895C52.501 50.7811 52.5126 50.7831 52.5232 50.7876C52.5338 50.7922 52.5433 50.7991 52.5508 50.8078C52.5584 50.8177 52.5638 50.829 52.5666 50.8411C52.5694 50.8532 52.5696 50.8657 52.5671 50.8779L52.5345 51.1736C52.5306 51.1906 52.5322 51.2006 52.5415 51.2021C52.55 51.2044 52.5585 51.199 52.5671 51.1867C52.6558 51.0527 52.7767 50.9426 52.9189 50.8664C53.0611 50.7902 53.2201 50.7502 53.3817 50.7501C53.4958 50.7475 53.609 50.7715 53.7122 50.8201V50.8201Z" fill="#3B3B3B"/>
<path d="M55.2615 54.0245C55.2534 54.0147 55.2478 54.0032 55.245 53.991C55.2422 53.9787 55.2422 53.9659 55.2452 53.9536L55.775 49.6518C55.778 49.6247 55.7907 49.5995 55.8107 49.5809C55.8315 49.5635 55.858 49.5544 55.8852 49.5555H56.2995C56.311 49.555 56.3224 49.5571 56.333 49.5615C56.3436 49.5659 56.353 49.5725 56.3607 49.5809C56.3684 49.5909 56.3738 49.6024 56.3767 49.6146C56.3795 49.6268 56.3796 49.6395 56.3771 49.6518L56.1311 51.6548C56.1305 51.6596 56.131 51.6645 56.1326 51.669C56.1343 51.6736 56.1369 51.6777 56.1404 51.681C56.1474 51.6849 56.1567 51.681 56.1699 51.6679L58.201 49.6071C58.2152 49.5904 58.2331 49.577 58.2532 49.5681C58.2734 49.5592 58.2953 49.5549 58.3174 49.5555H58.7898C58.8371 49.5555 58.8604 49.5701 58.8604 49.6002C58.859 49.6139 58.8548 49.6273 58.8482 49.6395C58.8415 49.6516 58.8325 49.6624 58.8216 49.671L57.1528 51.4369C57.147 51.4426 57.1433 51.4501 57.1422 51.4582C57.1411 51.4663 57.1426 51.4745 57.1467 51.4816L58.4143 53.9344C58.4237 53.9499 58.4283 53.9679 58.4275 53.986C58.4275 54.0283 58.3972 54.0499 58.3367 54.0499H57.8713C57.8484 54.0526 57.8252 54.0478 57.8054 54.0363C57.7855 54.0248 57.77 54.0071 57.7611 53.986L56.6742 51.9182C56.6724 51.9143 56.6697 51.9107 56.6664 51.9079C56.663 51.9051 56.6591 51.9031 56.6548 51.9021C56.6509 51.901 56.6467 51.9014 56.6431 51.9033C56.6395 51.9051 56.6367 51.9083 56.6354 51.9121L56.0403 52.5027C56.032 52.5168 56.0255 52.5318 56.021 52.5474L55.8464 53.9536C55.8435 53.9807 55.8308 54.0059 55.8107 54.0245C55.7923 54.0411 55.7682 54.0502 55.7433 54.0499H55.3289C55.3165 54.0509 55.304 54.0491 55.2923 54.0447C55.2806 54.0403 55.2701 54.0334 55.2615 54.0245V54.0245Z" fill="#3B3B3B"/>
<path d="M59.1031 54.0245C59.0951 54.0147 59.0895 54.0032 59.0867 53.991C59.0838 53.9787 59.0839 53.9659 59.0868 53.9537L59.4685 50.8778C59.4714 50.8508 59.4841 50.8259 59.5043 50.8077C59.5225 50.7906 59.5467 50.7812 59.5717 50.7815H59.986C59.9985 50.7801 60.0113 50.7817 60.023 50.7863C60.0348 50.7909 60.0452 50.7982 60.0535 50.8077C60.0617 50.8172 60.0675 50.8285 60.0704 50.8407C60.0732 50.8529 60.073 50.8657 60.0698 50.8778L59.6881 53.9537C59.6858 53.9801 59.6746 54.0051 59.6563 54.0245C59.6467 54.0332 59.6354 54.04 59.6232 54.0443C59.6109 54.0487 59.5979 54.0506 59.5849 54.0499H59.1706C59.1582 54.0509 59.1457 54.0491 59.134 54.0447C59.1223 54.0403 59.1118 54.0334 59.1031 54.0245V54.0245ZM59.5748 50.1978C59.5411 50.1641 59.5148 50.1239 59.4976 50.0796C59.4804 50.0353 59.4726 49.988 59.4747 49.9405C59.4727 49.8798 59.4835 49.8194 59.5064 49.763C59.5292 49.7067 59.5636 49.6557 59.6074 49.6132C59.6514 49.5708 59.7035 49.5375 59.7607 49.5154C59.8179 49.4933 59.8789 49.4829 59.9402 49.4846C60.0365 49.4807 60.1305 49.5141 60.2024 49.5778C60.2358 49.6096 60.262 49.6481 60.2793 49.6907C60.2965 49.7334 60.3045 49.7791 60.3025 49.825C60.3041 49.8867 60.2932 49.9481 60.2704 50.0055C60.2476 50.0629 60.2134 50.1152 60.1699 50.1593C60.1278 50.2029 60.077 50.2374 60.0208 50.2606C59.9646 50.2838 59.9041 50.2952 59.8432 50.294C59.7943 50.2964 59.7454 50.289 59.6993 50.2725C59.6532 50.256 59.611 50.2306 59.5748 50.1978V50.1978Z" fill="#3B3B3B"/>
<path d="M63.1195 49.5809C63.1403 49.5635 63.1669 49.5544 63.194 49.5555H63.6083C63.6197 49.555 63.6312 49.5571 63.6418 49.5615C63.6524 49.5659 63.6619 49.5725 63.6696 49.5809C63.6773 49.5909 63.6827 49.6024 63.6855 49.6146C63.6883 49.6268 63.6884 49.6395 63.6859 49.6518L63.1552 53.9536C63.1523 53.9801 63.1409 54.005 63.1227 54.0245C63.1132 54.0332 63.1021 54.04 63.0899 54.0443C63.0778 54.0487 63.0649 54.0506 63.052 54.0499H62.6378C62.6253 54.0509 62.6128 54.0491 62.6012 54.0447C62.5895 54.0403 62.579 54.0334 62.5703 54.0245C62.5623 54.0147 62.5567 54.0032 62.5538 53.991C62.551 53.9787 62.551 53.9659 62.554 53.9536L62.5734 53.7865C62.5773 53.7734 62.575 53.765 62.5664 53.7611C62.5621 53.759 62.5571 53.7584 62.5524 53.7595C62.5478 53.7607 62.5437 53.7634 62.5408 53.7673C62.4401 53.8726 62.319 53.9567 62.1847 54.0145C62.0545 54.0717 61.9136 54.1013 61.7712 54.1015C61.5099 54.1145 61.2526 54.0336 61.0466 53.8735C60.8568 53.7055 60.7313 53.4775 60.6913 53.2282C60.6644 53.0992 60.6512 52.9679 60.6518 52.8362C60.6538 52.6924 60.6647 52.5489 60.6843 52.4065C60.7086 52.1398 60.7718 51.878 60.872 51.6294C60.9813 51.3666 61.1601 51.138 61.3895 50.9679C61.6219 50.8059 61.9009 50.7228 62.1847 50.7307C62.322 50.7287 62.4579 50.7571 62.5827 50.8139C62.7004 50.8688 62.8019 50.9529 62.8775 51.058C62.886 51.0665 62.893 51.0695 62.9 51.0672C62.9062 51.0657 62.9116 51.058 62.9163 51.0449L63.0839 49.6518C63.0868 49.6247 63.0995 49.5995 63.1195 49.5809V49.5809ZM62.741 52.4126C62.7531 52.3039 62.7596 52.1947 62.7603 52.0853C62.767 51.9166 62.7385 51.7483 62.6766 51.5909C62.6407 51.4913 62.5736 51.4057 62.485 51.3468C62.3965 51.2878 62.2912 51.2587 62.1847 51.2636C62.0677 51.2626 61.9522 51.2901 61.8484 51.3439C61.7446 51.3976 61.6558 51.4758 61.5897 51.5717C61.4154 51.8233 61.3086 52.1148 61.2793 52.4188C61.2671 52.519 61.2607 52.6198 61.26 52.7207C61.2563 52.8887 61.2825 53.0561 61.3376 53.2151C61.3785 53.3278 61.4561 53.4237 61.5581 53.4877C61.6601 53.5518 61.7807 53.5802 61.9008 53.5686C62.0206 53.5657 62.1376 53.5323 62.2406 53.4714C62.3437 53.4106 62.4292 53.3244 62.4888 53.2213C62.6334 52.9741 62.7196 52.6976 62.741 52.4126V52.4126Z" fill="#3B3B3B"/>
<path d="M64.3096 53.8635C64.2133 53.802 64.134 53.7174 64.0793 53.6176C64.0245 53.5177 63.9959 53.4058 63.9962 53.2921C63.995 53.2642 63.9971 53.2363 64.0023 53.2089L64.0086 53.1704C64.0115 53.1433 64.0242 53.1181 64.0442 53.0995C64.0629 53.0828 64.0873 53.0737 64.1125 53.0741H64.5004C64.5248 53.0729 64.5492 53.0771 64.5718 53.0864C64.5888 53.0957 64.5951 53.1057 64.5912 53.1188L64.5842 53.1704C64.5791 53.2319 64.591 53.2936 64.6184 53.3489C64.6459 53.4042 64.6879 53.4511 64.7401 53.4846C64.8734 53.5798 65.0354 53.6274 65.1994 53.6194C65.3769 53.6267 65.5522 53.5785 65.7006 53.4815C65.76 53.4455 65.8093 53.3951 65.8437 53.335C65.8782 53.2749 65.8967 53.2072 65.8977 53.138C65.8991 53.0859 65.8855 53.0343 65.8586 52.9895C65.8316 52.9447 65.7925 52.9083 65.7456 52.8847C65.592 52.8068 65.4305 52.7453 65.2638 52.7014C65.0785 52.6497 64.897 52.5854 64.7207 52.5089C64.5811 52.4472 64.4572 52.3551 64.3584 52.2393C64.2566 52.1168 64.2037 51.9614 64.2095 51.8027C64.2047 51.6545 64.2359 51.5075 64.3006 51.3739C64.3653 51.2404 64.4615 51.1243 64.5811 51.0356C64.8575 50.8361 65.1939 50.7353 65.5353 50.7499C65.825 50.7348 66.1116 50.815 66.3507 50.9779C66.4463 51.0447 66.524 51.1337 66.5769 51.2372C66.6298 51.3408 66.6562 51.4556 66.654 51.5716C66.6552 51.6059 66.6531 51.6402 66.6479 51.674C66.6445 51.6982 66.6316 51.72 66.6122 51.7349C66.5931 51.7502 66.5692 51.7584 66.5447 51.758H66.163C66.1405 51.7586 66.1182 51.7541 66.0978 51.7449C66.0807 51.7364 66.0745 51.7256 66.0784 51.7126L66.0854 51.674C66.092 51.6139 66.0819 51.5531 66.0562 51.4983C66.0304 51.4434 65.9901 51.3966 65.9395 51.3629C65.8015 51.271 65.6368 51.2269 65.4709 51.2374C65.301 51.2304 65.1326 51.2716 64.9853 51.356C64.9277 51.3886 64.88 51.436 64.8471 51.4931C64.8142 51.5503 64.7973 51.6152 64.7983 51.681C64.7973 51.7339 64.8113 51.786 64.8387 51.8314C64.8662 51.8767 64.906 51.9135 64.9535 51.9374C65.1098 52.0188 65.2744 52.0833 65.4445 52.13C65.6314 52.1815 65.815 52.2437 65.9946 52.3163C66.1351 52.3753 66.2601 52.4654 66.36 52.5797C66.4644 52.7034 66.5186 52.8613 66.5121 53.0225C66.5127 53.0611 66.5107 53.0997 66.5059 53.138C66.4893 53.2775 66.4425 53.4117 66.3687 53.5315C66.295 53.6513 66.1959 53.7538 66.0784 53.8319C65.8026 54.0116 65.4771 54.1013 65.1474 54.0884C64.8512 54.1033 64.5579 54.0246 64.3096 53.8635V53.8635Z" fill="#3B3B3B"/>
<path d="M71.8061 49.5808C71.814 49.5907 71.8195 49.6022 71.8223 49.6144C71.8251 49.6267 71.8252 49.6394 71.8224 49.6517L71.7774 49.9982C71.7744 50.0253 71.7617 50.0505 71.7417 50.0691C71.723 50.0858 71.6986 50.0949 71.6734 50.0945H70.5028C70.4983 50.0939 70.4938 50.0943 70.4896 50.0957C70.4853 50.0971 70.4815 50.0994 70.4783 50.1026C70.4752 50.1057 70.4728 50.1095 70.4714 50.1137C70.4699 50.118 70.4695 50.1224 70.4701 50.1268L69.9985 53.9535C69.9964 53.9807 69.9837 54.006 69.9631 54.0239C69.9425 54.0419 69.9157 54.0512 69.8883 54.0498H69.474C69.4616 54.0507 69.4491 54.0489 69.4374 54.0445C69.4258 54.0401 69.4153 54.0333 69.4066 54.0244C69.3986 54.0146 69.3929 54.0031 69.39 53.9909C69.3872 53.9786 69.3873 53.9658 69.3902 53.9535L69.8689 50.1268C69.8696 50.1224 69.8691 50.118 69.8677 50.1137C69.8663 50.1095 69.8639 50.1057 69.8608 50.1026C69.8576 50.0994 69.8538 50.0971 69.8495 50.0957C69.8453 50.0943 69.8407 50.0939 69.8363 50.0945H68.7308C68.7182 50.0962 68.7053 50.0947 68.6934 50.0903C68.6815 50.0858 68.6708 50.0785 68.6625 50.0689C68.6541 50.0594 68.6482 50.048 68.6453 50.0356C68.6425 50.0233 68.6428 50.0104 68.6462 49.9982L68.692 49.6517C68.6943 49.6252 68.7055 49.6002 68.7238 49.5808C68.7334 49.572 68.7447 49.5653 68.7569 49.5609C68.7692 49.5565 68.7822 49.5547 68.7952 49.5554H71.7386C71.751 49.5545 71.7635 49.5563 71.7752 49.5607C71.7869 49.5651 71.7974 49.572 71.8061 49.5808V49.5808Z" fill="#3B3B3B"/>
<path d="M71.9846 53.8605C71.7734 53.6936 71.6326 53.4544 71.5897 53.1898C71.5623 53.0479 71.5493 52.9037 71.5509 52.7593C71.5511 52.6414 71.5576 52.5237 71.5703 52.4065C71.6008 52.1409 71.6706 51.8811 71.7774 51.6356C71.8939 51.3634 72.0898 51.1319 72.3399 50.971C72.5947 50.8095 72.8918 50.726 73.1941 50.7308C73.4667 50.7213 73.7341 50.8062 73.9505 50.971C74.1566 51.1371 74.2966 51.3705 74.3454 51.6295C74.3726 51.7646 74.3856 51.9022 74.3842 52.04C74.384 52.1601 74.3775 52.2801 74.3647 52.3996C74.3386 52.6723 74.2687 52.939 74.1576 53.1898C74.0398 53.4629 73.8443 53.696 73.5952 53.8605C73.3495 54.0209 73.0613 54.1048 72.7674 54.1016C72.4864 54.112 72.2103 54.027 71.9846 53.8605V53.8605ZM73.2941 53.4239C73.4364 53.3197 73.5472 53.1788 73.6145 53.0165C73.6861 52.8216 73.7337 52.6189 73.7565 52.4127C73.7736 52.224 73.7829 52.0916 73.7829 52.0145C73.7821 51.9481 73.7777 51.8818 73.7697 51.8159C73.7449 51.6583 73.6659 51.5141 73.5463 51.4077C73.4232 51.3085 73.2679 51.2573 73.1095 51.2637C72.9429 51.2618 72.78 51.3122 72.644 51.4077C72.5001 51.5113 72.3881 51.6526 72.3205 51.8159C72.2485 52.0082 72.2008 52.2087 72.1786 52.4127C72.1656 52.5301 72.1591 52.6481 72.1591 52.7662C72.1591 52.8386 72.163 52.9218 72.1723 53.0165C72.1942 53.1731 72.2721 53.3166 72.3919 53.4208C72.5154 53.5218 72.6718 53.5744 72.8318 53.5686C72.9975 53.5706 73.1595 53.5199 73.2941 53.4239V53.4239Z" fill="#3B3B3B"/>
<path d="M77.4664 49.5808C77.4871 49.5634 77.5137 49.5543 77.5409 49.5554H77.9543C77.9658 49.5548 77.9773 49.5568 77.9879 49.5612C77.9985 49.5656 78.008 49.5723 78.0156 49.5808C78.0236 49.5906 78.0293 49.6021 78.0321 49.6144C78.0349 49.6266 78.0349 49.6394 78.0319 49.6517L77.5021 53.9536C77.4991 53.98 77.4877 54.0049 77.4694 54.0244C77.4599 54.0332 77.4487 54.04 77.4364 54.0443C77.4241 54.0487 77.4111 54.0506 77.3981 54.0498H76.9846C76.9719 54.0515 76.9591 54.0501 76.9472 54.0456C76.9352 54.0411 76.9246 54.0338 76.9162 54.0243C76.9079 54.0147 76.902 54.0033 76.8992 53.9909C76.8963 53.9786 76.8966 53.9657 76.9 53.9536L76.9194 53.7864C76.9241 53.7733 76.9217 53.7649 76.9132 53.761C76.9047 53.7564 76.8961 53.7587 76.8868 53.7672C76.7862 53.8723 76.6654 53.9564 76.5315 54.0144C76.401 54.0717 76.2599 54.1013 76.1173 54.1014C75.8562 54.1145 75.5991 54.0336 75.3934 53.8735C75.2031 53.7057 75.0773 53.4776 75.0373 53.2281C75.0111 53.0991 74.9981 52.9677 74.9985 52.8361C75.0006 52.6923 75.0115 52.5488 75.0312 52.4064C75.0552 52.1397 75.1182 51.878 75.2181 51.6293C75.3279 51.3668 75.5066 51.1384 75.7356 50.9678C75.9683 50.806 76.2474 50.7228 76.5315 50.7306C76.6688 50.7286 76.8048 50.757 76.9296 50.8138C77.047 50.8688 77.1483 50.9528 77.2236 51.0579C77.2321 51.0664 77.2399 51.0694 77.2461 51.0671C77.2531 51.0656 77.2577 51.0579 77.2623 51.0448L77.4307 49.6517C77.4333 49.6245 77.446 49.5992 77.4664 49.5808ZM77.0878 52.4126C77.1 52.3039 77.1064 52.1946 77.1072 52.0853C77.1138 51.9165 77.0853 51.7482 77.0234 51.5908C76.9874 51.4913 76.9201 51.4058 76.8316 51.3469C76.7431 51.2881 76.638 51.2588 76.5315 51.2635C76.4145 51.2625 76.299 51.29 76.1953 51.3438C76.0915 51.3975 76.0026 51.4757 75.9365 51.5716C75.7619 51.823 75.6551 52.1147 75.6262 52.4187C75.6136 52.5189 75.6071 52.6197 75.6068 52.7206C75.6027 52.8887 75.6289 53.0561 75.6844 53.215C75.725 53.3277 75.8025 53.4237 75.9044 53.4878C76.0063 53.5518 76.1268 53.5802 76.2468 53.5685C76.3667 53.5656 76.4839 53.5321 76.587 53.4713C76.6901 53.4105 76.7758 53.3243 76.8357 53.2212C76.9799 52.9739 77.0661 52.6975 77.0878 52.4126V52.4126Z" fill="#3B3B3B"/>
<path d="M80.7519 50.8078C80.7701 50.7907 80.7943 50.7813 80.8193 50.7816H81.2337C81.2463 50.7807 81.2589 50.7825 81.2708 50.7871C81.2826 50.7916 81.2932 50.7987 81.3019 50.8078C81.3096 50.8176 81.315 50.829 81.3177 50.8411C81.3203 50.8532 81.3202 50.8658 81.3174 50.8779L80.9365 53.9538C80.9336 53.9802 80.9222 54.0051 80.9039 54.0246C80.8944 54.0334 80.8831 54.0402 80.8708 54.0445C80.8586 54.0489 80.8455 54.0508 80.8325 54.05H80.4191C80.4064 54.0517 80.3935 54.0503 80.3816 54.0458C80.3697 54.0414 80.359 54.034 80.3507 54.0245C80.3423 54.015 80.3364 54.0035 80.3336 53.9911C80.3308 53.9788 80.3311 53.966 80.3345 53.9538L80.3539 53.7866C80.3585 53.7736 80.3562 53.7651 80.3477 53.7612C80.3392 53.7566 80.3306 53.7589 80.3213 53.7674C80.2207 53.8725 80.0999 53.9566 79.966 54.0146C79.8355 54.0719 79.6944 54.1015 79.5517 54.1016C79.2907 54.1147 79.0335 54.0338 78.8278 53.8737C78.6375 53.7059 78.5117 53.4778 78.4718 53.2283C78.4456 53.0993 78.4326 52.9679 78.433 52.8363C78.435 52.6925 78.4459 52.549 78.4656 52.4066C78.4896 52.1399 78.5525 51.8782 78.6525 51.6295C78.7623 51.367 78.941 51.1386 79.17 50.968C79.4028 50.8061 79.6819 50.723 79.966 50.7308C80.1032 50.7288 80.2392 50.7572 80.364 50.814C80.4815 50.869 80.5827 50.953 80.658 51.0581C80.6665 51.0666 80.6743 51.0696 80.6805 51.0673C80.6875 51.0658 80.6921 51.0581 80.6968 51.045L80.7162 50.8779C80.7193 50.8511 80.732 50.8262 80.7519 50.8078V50.8078ZM80.5222 52.4127C80.5344 52.3041 80.5409 52.1948 80.5416 52.0854C80.5482 51.9167 80.5197 51.7484 80.4578 51.591C80.4218 51.4915 80.3546 51.406 80.2661 51.3471C80.1776 51.2882 80.0724 51.259 79.966 51.2637C79.849 51.2627 79.7334 51.2902 79.6297 51.344C79.5259 51.3977 79.4371 51.4759 79.3709 51.5718C79.1963 51.8232 79.0895 52.1149 79.0606 52.4189C79.048 52.5191 79.0415 52.6199 79.0412 52.7208C79.0371 52.8889 79.0634 53.0563 79.1188 53.2152C79.1595 53.3279 79.2369 53.4239 79.3388 53.488C79.4407 53.552 79.5612 53.5804 79.6812 53.5687C79.8012 53.5658 79.9183 53.5323 80.0214 53.4715C80.1245 53.4107 80.2102 53.3245 80.2701 53.2214C80.4143 52.9741 80.5005 52.6977 80.5222 52.4127V52.4127Z" fill="#3B3B3B"/>
<path d="M81.5246 55.3052C81.5157 55.2838 81.5135 55.2602 81.5184 55.2375L81.5634 54.9102C81.5727 54.8462 81.5874 54.8139 81.6092 54.8139H81.648C81.7851 54.8186 81.922 54.7991 82.0522 54.7561C82.16 54.7121 82.2524 54.6373 82.3175 54.5413C82.4153 54.3932 82.4964 54.2348 82.5595 54.0692C82.5643 54.0568 82.5643 54.0431 82.5595 54.0307L81.9133 50.8909V50.8716C81.9114 50.8595 81.9125 50.847 81.9163 50.8353C81.9202 50.8236 81.9268 50.8129 81.9355 50.8042C81.9442 50.7954 81.9549 50.7888 81.9667 50.7849C81.9784 50.781 81.991 50.7798 82.0033 50.7815H82.4431C82.4661 50.7799 82.4888 50.787 82.5068 50.8012C82.5248 50.8155 82.5367 50.836 82.5402 50.8586L82.9606 53.1705C82.9652 53.1874 82.9715 53.1959 82.98 53.1959C82.9886 53.1959 82.9955 53.1874 82.9994 53.1705L83.9699 50.8655C83.9773 50.8407 83.9926 50.819 84.0137 50.8039C84.0347 50.7887 84.0603 50.7808 84.0863 50.7816H84.5262C84.5735 50.7816 84.5975 50.8008 84.5975 50.8393C84.5983 50.8574 84.5937 50.8754 84.5843 50.8909L83.0452 54.2748C82.9465 54.5079 82.8227 54.7297 82.6759 54.9364C82.5708 55.0764 82.4272 55.1833 82.2624 55.2444C82.047 55.3117 81.8216 55.3419 81.596 55.3337H81.551C81.5425 55.3337 81.5339 55.3245 81.5246 55.3052Z" fill="#3B3B3B"/>
<path d="M84.4036 54.4996L84.8171 53.138C84.8225 53.1129 84.8363 53.0903 84.8563 53.0739C84.8763 53.0576 84.9013 53.0484 84.9272 53.0479H85.2825C85.295 53.0469 85.3075 53.049 85.3189 53.0541C85.3303 53.0593 85.3402 53.0672 85.3477 53.0772C85.3539 53.0896 85.3572 53.1033 85.3572 53.1172C85.3572 53.1311 85.3539 53.1448 85.3477 53.1573L84.8233 54.5188C84.8169 54.5428 84.8027 54.564 84.7829 54.579C84.7631 54.5941 84.7388 54.6022 84.7139 54.602H84.4812C84.4122 54.602 84.3858 54.5674 84.4036 54.4996Z" fill="#3B3B3B"/>
<path d="M87.9382 53.7541C87.8126 53.6306 87.7146 53.4822 87.6506 53.3186C87.5865 53.155 87.5579 52.9799 87.5666 52.8046C87.5651 52.7251 87.5692 52.6455 87.579 52.5666L87.7667 51.0387C87.7994 50.7519 87.9002 50.4768 88.0608 50.2362C88.215 50.0076 88.4254 49.8218 88.6721 49.6964C88.9306 49.5663 89.217 49.5003 89.5068 49.5038C89.6896 49.4942 89.8725 49.5205 90.045 49.5812C90.2176 49.6418 90.3764 49.7357 90.5123 49.8573C90.6376 49.9798 90.7356 50.1271 90.7997 50.2896C90.8639 50.4522 90.8928 50.6263 90.8847 50.8007C90.886 50.8802 90.8816 50.9598 90.8715 51.0387L90.6838 52.5666C90.6555 52.8549 90.5554 53.1317 90.3928 53.3722C90.2373 53.6016 90.026 53.7884 89.7784 53.9151C89.5179 54.046 89.2293 54.1121 88.9374 54.1076C88.7556 54.1168 88.5738 54.0902 88.4024 54.0296C88.2309 53.9689 88.0732 53.8753 87.9382 53.7541ZM89.7303 53.3052C89.9301 53.1171 90.0552 52.864 90.0825 52.592L90.2702 51.0318C90.2788 50.9547 90.2826 50.8993 90.2826 50.8654C90.2909 50.754 90.2748 50.6422 90.2354 50.5376C90.1961 50.4329 90.1344 50.338 90.0545 50.2593C89.9747 50.1806 89.8787 50.1199 89.773 50.0815C89.6674 50.0431 89.5546 50.0278 89.4424 50.0367C89.1763 50.0312 88.9186 50.1291 88.7241 50.3094C88.5218 50.4991 88.3974 50.7564 88.375 51.0317L88.181 52.592C88.1725 52.669 88.1678 52.7253 88.1678 52.7591C88.1623 52.8683 88.1796 52.9773 88.2186 53.0795C88.2576 53.1817 88.3174 53.2748 88.3944 53.3529C88.4755 53.4286 88.5712 53.4872 88.6757 53.5254C88.7802 53.5635 88.8914 53.5802 89.0026 53.5747C89.2712 53.5821 89.5322 53.4854 89.7303 53.3051V53.3052Z" fill="#3B3B3B"/>
<path d="M93.6691 50.8077C93.6875 50.7904 93.712 50.781 93.7373 50.7815H94.1508C94.1624 50.7808 94.1739 50.7829 94.1846 50.7874C94.1952 50.7919 94.2046 50.7989 94.2121 50.8077C94.2201 50.8173 94.2257 50.8287 94.2285 50.8408C94.2313 50.853 94.2313 50.8656 94.2284 50.8778L93.8467 53.9536C93.8444 53.9801 93.8332 54.0051 93.8149 54.0245C93.8053 54.0332 93.7941 54.0399 93.7818 54.0443C93.7696 54.0487 93.7565 54.0506 93.7435 54.0499H93.3363C93.3236 54.0516 93.3107 54.0501 93.2988 54.0457C93.2869 54.0412 93.2763 54.0339 93.2679 54.0244C93.2595 54.0148 93.2536 54.0034 93.2508 53.991C93.248 53.9787 93.2483 53.9658 93.2517 53.9536L93.278 53.7611C93.278 53.7311 93.2649 53.7264 93.2393 53.748C93.1402 53.8635 93.0157 53.9549 92.8754 54.0149C92.7351 54.075 92.5827 54.1023 92.4301 54.0946C92.1681 54.1037 91.9114 54.0195 91.7063 53.8574C91.609 53.776 91.5321 53.6734 91.4814 53.5575C91.4308 53.4417 91.4079 53.3158 91.4146 53.1897C91.4137 53.1382 91.4161 53.0868 91.4216 53.0356L91.6869 50.8778C91.6897 50.8508 91.7024 50.8259 91.7226 50.8077C91.7428 50.7897 91.7692 50.7803 91.7963 50.7815H92.2044C92.2169 50.7805 92.2295 50.7824 92.2412 50.7869C92.2528 50.7915 92.2633 50.7986 92.2718 50.8077C92.2798 50.8173 92.2854 50.8287 92.2882 50.8408C92.2911 50.853 92.2911 50.8656 92.2882 50.8778L92.0422 52.8431C92.0376 52.8856 92.0355 52.9283 92.0361 52.971C92.0268 53.1292 92.0803 53.2848 92.185 53.4045C92.2409 53.4591 92.3078 53.5013 92.3814 53.5284C92.4549 53.5555 92.5334 53.5668 92.6117 53.5616C92.8064 53.5681 92.9958 53.4978 93.1384 53.366C93.2828 53.2276 93.3713 53.0417 93.3875 52.8431L93.6334 50.8778C93.6365 50.8509 93.6492 50.8261 93.6691 50.8077V50.8077Z" fill="#3B3B3B"/>
<path d="M96.8545 50.8201C96.8679 50.8266 96.8792 50.8366 96.8872 50.8492C96.8952 50.8617 96.8994 50.8762 96.8995 50.891C96.8976 50.9086 96.8933 50.926 96.887 50.9426L96.7513 51.36C96.7501 51.3778 96.742 51.3944 96.7287 51.4063C96.7154 51.4183 96.6979 51.4246 96.6799 51.4239C96.6624 51.4243 96.6449 51.4222 96.6279 51.4178C96.5617 51.3945 96.4918 51.3836 96.4216 51.3854C96.3889 51.3848 96.3562 51.3869 96.3238 51.3916C96.135 51.3986 95.9549 51.4726 95.8164 51.6003C95.6708 51.7334 95.58 51.9153 95.5612 52.1109L95.3277 53.9537C95.3254 53.9802 95.3142 54.0052 95.2959 54.0246C95.2863 54.0334 95.275 54.0402 95.2628 54.0445C95.2505 54.0489 95.2375 54.0508 95.2245 54.05H94.811C94.7984 54.0517 94.7855 54.0503 94.7736 54.0458C94.7617 54.0413 94.751 54.034 94.7426 54.0245C94.7342 54.0149 94.7284 54.0035 94.7255 53.9911C94.7227 53.9788 94.723 53.9659 94.7264 53.9537L95.1081 50.8779C95.111 50.851 95.1237 50.826 95.1439 50.8078C95.1643 50.7898 95.191 50.7805 95.2183 50.7816H95.6318C95.6435 50.7811 95.6552 50.7831 95.6659 50.7876C95.6767 50.7922 95.6862 50.7991 95.6939 50.8078C95.7015 50.8176 95.7069 50.829 95.7096 50.8411C95.7123 50.8532 95.7122 50.8658 95.7094 50.8779L95.6776 51.1736C95.6729 51.1906 95.6752 51.2006 95.6838 51.2021C95.6923 51.2044 95.7008 51.199 95.7094 51.1867C95.7982 51.0526 95.9192 50.9425 96.0615 50.8662C96.2038 50.79 96.363 50.7501 96.5247 50.7501C96.6387 50.7475 96.7516 50.7715 96.8545 50.8201V50.8201Z" fill="#3B3B3B"/>
<path d="M98.4037 54.0244C98.3958 54.0145 98.3903 54.0031 98.3875 53.9908C98.3847 53.9785 98.3847 53.9658 98.3874 53.9536L98.9181 49.6517C98.9207 49.6245 98.9334 49.5992 98.9538 49.5808C98.9745 49.5634 99.0011 49.5543 99.0283 49.5554H99.4417C99.4532 49.5548 99.4647 49.5568 99.4753 49.5612C99.4859 49.5656 99.4954 49.5723 99.503 49.5808C99.5111 49.5906 99.5167 49.6021 99.5195 49.6144C99.5223 49.6267 99.5223 49.6394 99.5193 49.6517L99.0476 53.4846C99.0476 53.5061 99.0562 53.5169 99.0732 53.5169H101.201C101.214 53.5159 101.226 53.5177 101.238 53.5221C101.25 53.5265 101.26 53.5334 101.269 53.5423C101.277 53.5521 101.282 53.5636 101.285 53.5759C101.288 53.5881 101.288 53.6009 101.285 53.6132L101.24 53.9536C101.237 53.98 101.226 54.0049 101.207 54.0244C101.198 54.0331 101.187 54.0399 101.175 54.0442C101.163 54.0486 101.15 54.0505 101.137 54.0498H98.472C98.4595 54.0508 98.4468 54.049 98.435 54.0446C98.4232 54.0402 98.4125 54.0333 98.4037 54.0244V54.0244Z" fill="#3B3B3B"/>
<path d="M103.727 53.4653C103.859 53.3959 103.972 53.2945 104.054 53.1704C104.062 53.1545 104.074 53.1408 104.088 53.1307C104.103 53.1206 104.12 53.1144 104.138 53.1126C104.156 53.1144 104.174 53.1211 104.19 53.1319L104.422 53.2921C104.434 53.2995 104.444 53.3099 104.451 53.3224C104.458 53.3348 104.461 53.3488 104.461 53.3629C104.46 53.3854 104.453 53.4073 104.442 53.4268C104.307 53.6336 104.123 53.8036 103.905 53.9212C103.674 54.0439 103.416 54.1059 103.155 54.1014C102.897 54.1131 102.643 54.042 102.43 53.8989C102.237 53.754 102.099 53.5498 102.035 53.3182C101.99 53.1399 101.968 52.9562 101.971 52.7722C101.971 52.6477 101.977 52.5233 101.99 52.3995C102.012 52.237 102.035 52.1012 102.058 51.9921C102.08 51.8878 102.111 51.7858 102.152 51.6871C102.254 51.4046 102.441 51.1603 102.688 50.9871C102.939 50.8147 103.238 50.725 103.543 50.7306C103.708 50.7154 103.874 50.7385 104.028 50.7981C104.182 50.8578 104.321 50.9522 104.432 51.0741C104.634 51.3643 104.731 51.714 104.707 52.066C104.707 52.1469 104.699 52.3078 104.681 52.5473C104.679 52.5744 104.666 52.5997 104.646 52.6177C104.625 52.6357 104.599 52.645 104.571 52.6436H102.591C102.587 52.6431 102.583 52.6435 102.578 52.645C102.574 52.6464 102.571 52.6488 102.567 52.6519C102.564 52.6551 102.562 52.6589 102.561 52.663C102.559 52.6672 102.559 52.6716 102.56 52.6759C102.55 52.7868 102.546 52.86 102.546 52.8939C102.546 52.9371 102.551 52.9802 102.56 53.0225C102.567 53.1014 102.59 53.178 102.629 53.2476C102.667 53.3171 102.719 53.3781 102.782 53.4268C102.926 53.5304 103.1 53.5825 103.277 53.5747C103.434 53.5734 103.588 53.536 103.727 53.4653ZM103.015 51.3983C102.885 51.4921 102.785 51.6213 102.727 51.7703C102.683 51.8866 102.65 52.0071 102.63 52.1299C102.622 52.1515 102.63 52.1623 102.657 52.1623H104.079C104.084 52.1629 104.088 52.1625 104.093 52.1611C104.097 52.1597 104.101 52.1573 104.104 52.1542C104.107 52.151 104.109 52.1472 104.111 52.143C104.112 52.1388 104.113 52.1343 104.112 52.1299C104.121 52.0275 104.124 51.959 104.124 51.9243C104.132 51.7488 104.071 51.5772 103.953 51.4461C103.892 51.3838 103.817 51.3354 103.736 51.3039C103.654 51.2724 103.566 51.2586 103.478 51.2635C103.313 51.2585 103.151 51.3057 103.015 51.3983V51.3983Z" fill="#3B3B3B"/>
<path d="M107.627 50.8078C107.646 50.7907 107.67 50.7813 107.695 50.7816H108.109C108.122 50.7807 108.134 50.7825 108.146 50.7871C108.158 50.7916 108.169 50.7987 108.177 50.8078C108.185 50.8176 108.19 50.829 108.193 50.8411C108.196 50.8532 108.196 50.8658 108.193 50.8779L107.812 53.9538C107.809 53.9802 107.798 54.0051 107.779 54.0246C107.77 54.0334 107.759 54.0402 107.746 54.0445C107.734 54.0489 107.721 54.0508 107.708 54.05H107.295C107.282 54.0517 107.269 54.0503 107.257 54.0458C107.245 54.0414 107.234 54.034 107.226 54.0245C107.218 54.015 107.212 54.0035 107.209 53.9911C107.206 53.9788 107.207 53.966 107.21 53.9538L107.229 53.7866C107.234 53.7736 107.232 53.7651 107.223 53.7612C107.215 53.7566 107.206 53.7589 107.197 53.7674C107.096 53.8725 106.975 53.9566 106.841 54.0146C106.711 54.0719 106.57 54.1015 106.427 54.1016C106.166 54.1147 105.909 54.0338 105.703 53.8737C105.513 53.7059 105.387 53.4778 105.347 53.2283C105.321 53.0993 105.308 52.9679 105.308 52.8363C105.311 52.6925 105.321 52.549 105.341 52.4066C105.365 52.1399 105.428 51.8782 105.528 51.6295C105.638 51.367 105.817 51.1386 106.045 50.968C106.278 50.8061 106.557 50.723 106.841 50.7308C106.979 50.7288 107.115 50.7572 107.239 50.814C107.357 50.869 107.458 50.953 107.533 51.0581C107.542 51.0666 107.55 51.0696 107.556 51.0673C107.563 51.0658 107.568 51.0581 107.572 51.045L107.592 50.8779C107.595 50.8511 107.607 50.8262 107.627 50.8078V50.8078ZM107.398 52.4127C107.41 52.3041 107.416 52.1948 107.417 52.0854C107.424 51.9167 107.395 51.7484 107.333 51.591C107.297 51.4915 107.23 51.406 107.142 51.3471C107.053 51.2882 106.948 51.259 106.841 51.2637C106.724 51.2627 106.609 51.2902 106.505 51.344C106.401 51.3977 106.313 51.4759 106.246 51.5718C106.072 51.8232 105.965 52.1149 105.936 52.4189C105.923 52.5191 105.917 52.6199 105.917 52.7208C105.913 52.8889 105.939 53.0563 105.994 53.2152C106.035 53.3279 106.112 53.4239 106.214 53.488C106.316 53.552 106.437 53.5804 106.557 53.5687C106.677 53.5658 106.794 53.5323 106.897 53.4715C107 53.4107 107.086 53.3245 107.146 53.2214C107.29 52.9741 107.376 52.6977 107.398 52.4127Z" fill="#3B3B3B"/>
<path d="M111.205 49.5808C111.225 49.5634 111.252 49.5543 111.279 49.5554H111.693C111.704 49.5548 111.715 49.5568 111.726 49.5612C111.737 49.5656 111.746 49.5723 111.754 49.5808C111.762 49.5906 111.767 49.6021 111.77 49.6144C111.773 49.6266 111.773 49.6394 111.77 49.6517L111.24 53.9536C111.237 53.98 111.226 54.0049 111.208 54.0244C111.198 54.0332 111.187 54.04 111.175 54.0443C111.162 54.0487 111.149 54.0506 111.136 54.0498H110.723C110.71 54.0515 110.697 54.0501 110.685 54.0456C110.673 54.0411 110.663 54.0338 110.654 54.0243C110.646 54.0147 110.64 54.0033 110.637 53.9909C110.635 53.9786 110.635 53.9657 110.638 53.9536L110.658 53.7864C110.662 53.7733 110.66 53.7649 110.651 53.761C110.643 53.7564 110.634 53.7587 110.625 53.7672C110.524 53.8723 110.404 53.9564 110.27 54.0144C110.139 54.0717 109.998 54.1013 109.855 54.1014C109.594 54.1145 109.337 54.0336 109.132 53.8735C108.941 53.7057 108.815 53.4776 108.775 53.2281C108.749 53.0991 108.736 52.9677 108.737 52.8361C108.739 52.6923 108.75 52.5488 108.769 52.4064C108.793 52.1397 108.856 51.878 108.956 51.6293C109.066 51.3668 109.245 51.1384 109.474 50.9678C109.707 50.806 109.986 50.7228 110.27 50.7306C110.407 50.7286 110.543 50.757 110.668 50.8138C110.785 50.8688 110.886 50.9528 110.962 51.0579C110.97 51.0664 110.978 51.0694 110.984 51.0671C110.991 51.0656 110.996 51.0579 111.001 51.0448L111.169 49.6517C111.172 49.6245 111.184 49.5992 111.205 49.5808V49.5808ZM110.826 52.4126C110.838 52.3039 110.845 52.1946 110.845 52.0853C110.852 51.9165 110.823 51.7482 110.762 51.5908C110.725 51.4913 110.658 51.4058 110.57 51.3469C110.481 51.2881 110.376 51.2588 110.27 51.2635C110.153 51.2625 110.037 51.29 109.933 51.3438C109.83 51.3975 109.741 51.4757 109.675 51.5716C109.5 51.823 109.393 52.1147 109.364 52.4187C109.352 52.5189 109.345 52.6197 109.345 52.7206C109.341 52.8887 109.367 53.0561 109.423 53.215C109.463 53.3277 109.541 53.4237 109.643 53.4878C109.744 53.5518 109.865 53.5802 109.985 53.5685C110.105 53.5656 110.222 53.5321 110.325 53.4713C110.428 53.4105 110.514 53.3243 110.574 53.2212C110.718 52.9739 110.804 52.6975 110.826 52.4126V52.4126Z" fill="#3B3B3B"/>
<path d="M113.966 53.4653C114.099 53.3959 114.211 53.2945 114.293 53.1704C114.301 53.1545 114.313 53.1408 114.327 53.1307C114.342 53.1206 114.359 53.1144 114.377 53.1126C114.396 53.1144 114.413 53.1211 114.429 53.1319L114.662 53.2921C114.674 53.2995 114.684 53.3099 114.69 53.3224C114.697 53.3348 114.701 53.3488 114.7 53.3629C114.699 53.3854 114.692 53.4073 114.681 53.4268C114.546 53.6336 114.362 53.8036 114.144 53.9212C113.914 54.0439 113.655 54.1059 113.394 54.1014C113.137 54.1131 112.883 54.042 112.669 53.8989C112.477 53.754 112.338 53.5498 112.274 53.3182C112.229 53.1399 112.207 52.9562 112.21 52.7722C112.21 52.6477 112.217 52.5233 112.229 52.3995C112.251 52.237 112.274 52.1012 112.298 51.9921C112.319 51.8878 112.351 51.7858 112.391 51.6871C112.493 51.4046 112.681 51.1603 112.928 50.9871C113.178 50.8147 113.477 50.725 113.782 50.7306C113.947 50.7154 114.113 50.7385 114.267 50.7981C114.422 50.8578 114.56 50.9522 114.671 51.0741C114.873 51.3643 114.97 51.714 114.946 52.066C114.946 52.1469 114.938 52.3078 114.92 52.5473C114.918 52.5744 114.905 52.5997 114.885 52.6177C114.865 52.6357 114.838 52.645 114.81 52.6436H112.831C112.826 52.6431 112.822 52.6435 112.818 52.645C112.814 52.6464 112.81 52.6488 112.807 52.6519C112.804 52.6551 112.801 52.6589 112.8 52.663C112.799 52.6672 112.798 52.6716 112.799 52.6759C112.79 52.7868 112.786 52.86 112.786 52.8939C112.785 52.9371 112.79 52.9802 112.799 53.0225C112.806 53.1014 112.83 53.178 112.868 53.2476C112.906 53.3171 112.959 53.3781 113.021 53.4268C113.165 53.5304 113.339 53.5825 113.516 53.5747C113.673 53.5734 113.827 53.536 113.966 53.4653ZM113.254 51.3983C113.124 51.4921 113.024 51.6213 112.966 51.7703C112.922 51.8866 112.889 52.0071 112.869 52.1299C112.861 52.1515 112.869 52.1623 112.896 52.1623H114.319C114.323 52.1629 114.328 52.1625 114.332 52.1611C114.336 52.1597 114.34 52.1573 114.343 52.1542C114.346 52.151 114.349 52.1472 114.35 52.143C114.351 52.1388 114.352 52.1343 114.351 52.1299C114.36 52.0275 114.364 51.959 114.364 51.9243C114.372 51.7488 114.31 51.5772 114.192 51.4461C114.131 51.3838 114.057 51.3354 113.975 51.3039C113.893 51.2724 113.805 51.2586 113.717 51.2635C113.552 51.2585 113.39 51.3057 113.254 51.3983V51.3983Z" fill="#3B3B3B"/>
<path d="M117.63 50.8201C117.644 50.8267 117.655 50.8368 117.663 50.8493C117.671 50.8618 117.675 50.8762 117.675 50.891C117.673 50.9086 117.669 50.926 117.662 50.9426L117.526 51.36C117.525 51.3778 117.517 51.3945 117.504 51.4065C117.491 51.4184 117.473 51.4247 117.455 51.4239C117.438 51.4243 117.421 51.4222 117.404 51.4178C117.337 51.3945 117.267 51.3835 117.197 51.3854C117.164 51.3848 117.132 51.3868 117.1 51.3916C116.911 51.3987 116.73 51.4727 116.592 51.6003C116.446 51.7334 116.355 51.9153 116.336 52.1109L116.104 53.9537C116.101 53.9802 116.089 54.0051 116.071 54.0246C116.062 54.0333 116.05 54.0401 116.038 54.0444C116.026 54.0488 116.013 54.0507 116 54.05H115.586C115.574 54.0509 115.561 54.0491 115.549 54.0447C115.537 54.0403 115.527 54.0335 115.518 54.0246C115.51 54.0147 115.505 54.0032 115.502 53.9909C115.499 53.9787 115.499 53.966 115.502 53.9537L115.884 50.8779C115.887 50.8511 115.899 50.8261 115.919 50.8078C115.939 50.7898 115.966 50.7805 115.993 50.7816H116.408C116.419 50.7811 116.431 50.7831 116.441 50.7876C116.452 50.7922 116.461 50.7991 116.469 50.8078C116.477 50.8177 116.482 50.829 116.485 50.8411C116.488 50.8532 116.488 50.8657 116.485 50.8779L116.453 51.1736C116.449 51.1906 116.45 51.2006 116.46 51.2021C116.468 51.2044 116.477 51.199 116.485 51.1867C116.574 51.0527 116.695 50.9426 116.837 50.8664C116.979 50.7902 117.138 50.7502 117.3 50.7501C117.414 50.7475 117.527 50.7715 117.63 50.8201V50.8201Z" fill="#3B3B3B"/>
<path d="M118.067 53.8636C117.971 53.8021 117.891 53.7176 117.836 53.6177C117.782 53.5179 117.753 53.4059 117.753 53.2922C117.752 53.2643 117.754 53.2363 117.76 53.209L117.766 53.1705C117.769 53.1433 117.781 53.118 117.802 53.0996C117.82 53.083 117.844 53.074 117.869 53.0742H118.258C118.282 53.0731 118.306 53.0773 118.329 53.0865C118.346 53.0958 118.353 53.1058 118.348 53.1189L118.342 53.1705C118.337 53.2319 118.348 53.2936 118.376 53.3489C118.403 53.4043 118.445 53.4512 118.497 53.4847C118.63 53.58 118.792 53.6275 118.956 53.6195C119.134 53.6269 119.309 53.5787 119.457 53.4816C119.517 53.4457 119.566 53.3953 119.601 53.3352C119.635 53.2751 119.654 53.2073 119.654 53.1381C119.656 53.0861 119.642 53.0346 119.616 52.9898C119.589 52.945 119.55 52.9086 119.503 52.8848C119.349 52.8068 119.188 52.7453 119.021 52.7015C118.835 52.6497 118.654 52.5854 118.478 52.509C118.338 52.4469 118.214 52.3548 118.115 52.2394C118.013 52.1169 117.96 51.9615 117.966 51.8027C117.961 51.6546 117.993 51.5074 118.058 51.3738C118.122 51.2403 118.219 51.1243 118.339 51.0357C118.615 50.8359 118.951 50.7352 119.293 50.75C119.582 50.7348 119.869 50.8149 120.107 50.9779C120.203 51.0447 120.281 51.1337 120.334 51.2373C120.387 51.3408 120.414 51.4556 120.412 51.5717C120.412 51.606 120.41 51.6402 120.405 51.6741C120.402 51.6983 120.389 51.7201 120.37 51.735C120.35 51.7504 120.326 51.7586 120.301 51.7581H119.92C119.898 51.7587 119.876 51.7542 119.855 51.745C119.838 51.7365 119.831 51.7257 119.836 51.7126L119.842 51.6741C119.849 51.6141 119.839 51.5533 119.813 51.4985C119.788 51.4436 119.748 51.3968 119.697 51.363C119.559 51.2711 119.394 51.227 119.228 51.2375C119.058 51.2304 118.89 51.2716 118.743 51.3561C118.685 51.3887 118.637 51.436 118.604 51.4931C118.571 51.5503 118.554 51.6152 118.555 51.6811C118.554 51.7339 118.568 51.786 118.596 51.8313C118.623 51.8766 118.663 51.9134 118.71 51.9375C118.867 52.0187 119.032 52.0832 119.202 52.1301C119.389 52.1816 119.572 52.2438 119.751 52.3164C119.892 52.3752 120.017 52.4653 120.118 52.5798C120.221 52.7038 120.275 52.8615 120.269 53.0226C120.27 53.0612 120.268 53.0999 120.263 53.1382C120.246 53.2775 120.2 53.4118 120.126 53.5315C120.052 53.6513 119.953 53.7538 119.836 53.832C119.56 54.0117 119.234 54.1014 118.904 54.0885C118.608 54.1036 118.315 54.0248 118.067 53.8636V53.8636Z" fill="#3B3B3B"/>
<path d="M125.564 49.5809C125.572 49.5908 125.577 49.6023 125.58 49.6146C125.582 49.6268 125.582 49.6395 125.579 49.6517L125.534 49.9983C125.531 50.0254 125.519 50.0505 125.499 50.0691C125.48 50.0857 125.456 50.0948 125.431 50.0945H124.26C124.256 50.0939 124.251 50.0943 124.247 50.0957C124.243 50.0971 124.239 50.0995 124.236 50.1026C124.233 50.1058 124.23 50.1096 124.229 50.1138C124.228 50.118 124.227 50.1225 124.228 50.1269L123.755 53.9536C123.754 53.9807 123.741 54.0059 123.721 54.0239C123.7 54.0419 123.673 54.0512 123.646 54.0499H123.232C123.219 54.0508 123.207 54.049 123.195 54.0446C123.183 54.0402 123.172 54.0333 123.163 54.0245C123.156 54.0145 123.15 54.003 123.148 53.9908C123.145 53.9785 123.145 53.9658 123.148 53.9536L123.627 50.1269C123.627 50.1225 123.627 50.118 123.625 50.1138C123.624 50.1096 123.622 50.1058 123.619 50.1026C123.615 50.0995 123.611 50.0971 123.607 50.0957C123.603 50.0943 123.598 50.0939 123.594 50.0945H122.488C122.475 50.0955 122.463 50.0938 122.451 50.0894C122.439 50.085 122.429 50.0781 122.42 50.0691C122.412 50.0594 122.407 50.0479 122.404 50.0356C122.401 50.0233 122.401 50.0105 122.404 49.9983L122.449 49.6517C122.452 49.6252 122.463 49.6004 122.482 49.5809C122.491 49.5721 122.502 49.5653 122.515 49.5609C122.527 49.5566 122.54 49.5547 122.553 49.5555H125.496C125.508 49.5546 125.521 49.5564 125.532 49.5608C125.544 49.5651 125.555 49.572 125.564 49.5809V49.5809Z" fill="#3B3B3B"/>
<path d="M125.741 53.8605C125.531 53.6935 125.39 53.4543 125.347 53.1898C125.32 53.048 125.307 52.9037 125.309 52.7593C125.308 52.6414 125.315 52.5237 125.328 52.4065C125.358 52.1408 125.427 51.881 125.534 51.6356C125.651 51.3633 125.847 51.1319 126.098 50.971C126.352 50.8095 126.649 50.726 126.951 50.7308C127.224 50.7213 127.491 50.8062 127.708 50.971C127.914 51.1371 128.054 51.3705 128.102 51.6295C128.13 51.7645 128.143 51.9022 128.141 52.04C128.141 52.1601 128.134 52.2801 128.122 52.3996C128.096 52.6722 128.026 52.939 127.915 53.1898C127.797 53.4629 127.601 53.696 127.352 53.8605C127.107 54.021 126.818 54.1049 126.524 54.1016C126.243 54.112 125.967 54.027 125.741 53.8605ZM127.052 53.4239C127.194 53.3196 127.304 53.1787 127.371 53.0165C127.443 52.8215 127.491 52.6188 127.514 52.4127C127.531 52.224 127.54 52.0916 127.54 52.0145C127.539 51.9481 127.535 51.8818 127.527 51.8159C127.502 51.6583 127.424 51.514 127.304 51.4077C127.181 51.3086 127.026 51.2574 126.867 51.2637C126.701 51.2617 126.538 51.3121 126.402 51.4077C126.258 51.5113 126.146 51.6526 126.078 51.8159C126.006 52.0083 125.958 52.2087 125.935 52.4127C125.923 52.5301 125.916 52.6481 125.916 52.7662C125.916 52.8386 125.921 52.9217 125.929 53.0165C125.951 53.1731 126.03 53.3167 126.15 53.4208C126.273 53.5218 126.429 53.5744 126.589 53.5686C126.755 53.5706 126.917 53.5199 127.052 53.4239V53.4239Z" fill="#3B3B3B"/>
<path d="M133.096 50.974C133.179 51.0637 133.243 51.169 133.284 51.2837C133.325 51.3984 133.342 51.5202 133.335 51.6417C133.335 51.681 133.331 51.7472 133.323 51.8412L133.063 53.9536C133.061 53.9808 133.049 54.006 133.028 54.024C133.007 54.042 132.981 54.0513 132.953 54.0499H132.546C132.534 54.0509 132.521 54.0491 132.509 54.0447C132.498 54.0403 132.487 54.0334 132.479 54.0245C132.47 54.0147 132.465 54.0032 132.462 53.9909C132.459 53.9787 132.459 53.9659 132.462 53.9536L132.708 51.9698C132.713 51.925 132.715 51.88 132.714 51.835C132.723 51.6832 132.67 51.5343 132.568 51.4207C132.516 51.3689 132.452 51.3286 132.383 51.3026C132.313 51.2766 132.239 51.2654 132.164 51.2698C131.981 51.2659 131.804 51.3327 131.669 51.4561C131.53 51.588 131.444 51.7661 131.427 51.9567L131.181 53.9536C131.179 53.9808 131.167 54.006 131.146 54.024C131.125 54.042 131.099 54.0513 131.071 54.0499H130.664C130.651 54.0508 130.639 54.049 130.627 54.0446C130.615 54.0402 130.604 54.0334 130.596 54.0245C130.588 54.0146 130.582 54.0031 130.58 53.9908C130.577 53.9785 130.577 53.9659 130.58 53.9536L130.825 51.9698C130.831 51.9251 130.833 51.8801 130.832 51.835C130.841 51.6832 130.788 51.5343 130.686 51.4207C130.633 51.3689 130.57 51.3287 130.5 51.3027C130.431 51.2767 130.356 51.2655 130.282 51.2698C130.193 51.2672 130.104 51.2824 130.021 51.3144C129.938 51.3464 129.862 51.3946 129.797 51.4561C129.663 51.5906 129.58 51.7679 129.565 51.9567L129.312 53.9536C129.309 53.9801 129.298 54.0051 129.28 54.0245C129.27 54.0333 129.259 54.04 129.247 54.0444C129.235 54.0488 129.222 54.0507 129.208 54.0499H128.795C128.782 54.0516 128.769 54.0501 128.758 54.0457C128.746 54.0412 128.735 54.0339 128.727 54.0244C128.718 54.0148 128.712 54.0034 128.71 53.991C128.707 53.9787 128.707 53.9658 128.71 53.9536L129.092 50.8778C129.095 50.8508 129.108 50.8259 129.128 50.8077C129.148 50.7897 129.175 50.7803 129.202 50.7815H129.616C129.627 50.7809 129.639 50.783 129.65 50.7875C129.661 50.792 129.67 50.7989 129.678 50.8077C129.686 50.8175 129.691 50.8289 129.694 50.841C129.696 50.8531 129.696 50.8657 129.693 50.8778L129.674 51.0511C129.67 51.0641 129.672 51.0726 129.681 51.0772C129.685 51.0792 129.69 51.0796 129.695 51.0784C129.7 51.0771 129.704 51.0743 129.707 51.0703C129.816 50.9602 129.947 50.8738 130.092 50.8164C130.237 50.759 130.392 50.7319 130.548 50.7368C130.73 50.7307 130.911 50.7741 131.071 50.8624C131.213 50.9448 131.323 51.0727 131.382 51.2251C131.395 51.242 131.41 51.242 131.427 51.2251C131.536 51.0643 131.687 50.9364 131.864 50.8554C132.042 50.7756 132.235 50.7351 132.43 50.7368C132.551 50.7298 132.673 50.7471 132.787 50.7879C132.902 50.8287 133.007 50.892 133.096 50.974V50.974Z" fill="#3B3B3B"/>
<path d="M134.403 53.8605C134.191 53.6936 134.051 53.4544 134.008 53.1898C133.98 53.0479 133.967 52.9037 133.969 52.7593C133.969 52.6414 133.975 52.5237 133.988 52.4065C134.019 52.1409 134.089 51.8811 134.195 51.6356C134.312 51.3634 134.508 51.1319 134.758 50.971C135.013 50.8095 135.31 50.726 135.612 50.7308C135.885 50.7213 136.152 50.8062 136.368 50.971C136.575 51.1371 136.715 51.3705 136.763 51.6295C136.791 51.7646 136.804 51.9022 136.802 52.04C136.802 52.1601 136.796 52.2801 136.783 52.3996C136.757 52.6723 136.687 52.939 136.576 53.1898C136.458 53.4629 136.262 53.696 136.013 53.8605C135.768 54.0209 135.479 54.1048 135.185 54.1016C134.904 54.112 134.628 54.027 134.403 53.8605V53.8605ZM135.712 53.4239C135.854 53.3197 135.965 53.1788 136.032 53.0165C136.104 52.8216 136.152 52.6189 136.174 52.4127C136.192 52.224 136.201 52.0916 136.201 52.0145C136.2 51.9481 136.196 51.8818 136.188 51.8159C136.163 51.6583 136.084 51.5141 135.964 51.4077C135.841 51.3085 135.686 51.2573 135.527 51.2637C135.361 51.2618 135.198 51.3122 135.062 51.4077C134.918 51.5113 134.806 51.6526 134.738 51.8159C134.666 52.0082 134.619 52.2087 134.596 52.4127C134.584 52.5301 134.577 52.6481 134.577 52.7662C134.577 52.8386 134.581 52.9217 134.59 53.0165C134.612 53.1731 134.69 53.3166 134.81 53.4208C134.933 53.5218 135.09 53.5744 135.25 53.5686C135.415 53.5706 135.577 53.5199 135.712 53.4239V53.4239Z" fill="#3B3B3B"/>
<path d="M139.499 50.8201C139.513 50.8267 139.524 50.8368 139.532 50.8493C139.54 50.8618 139.544 50.8762 139.544 50.891C139.542 50.9086 139.538 50.926 139.531 50.9426L139.396 51.36C139.394 51.3778 139.386 51.3945 139.373 51.4065C139.36 51.4184 139.342 51.4247 139.324 51.4239C139.307 51.4243 139.29 51.4222 139.273 51.4178C139.207 51.3945 139.136 51.3835 139.066 51.3854C139.033 51.3848 139.001 51.3868 138.969 51.3916C138.78 51.3987 138.6 51.4727 138.461 51.6003C138.315 51.7334 138.224 51.9153 138.205 52.1109L137.973 53.9537C137.97 53.9802 137.958 54.0051 137.94 54.0246C137.931 54.0333 137.92 54.0401 137.907 54.0444C137.895 54.0488 137.882 54.0507 137.87 54.05H137.455C137.443 54.0509 137.43 54.0491 137.418 54.0447C137.407 54.0403 137.396 54.0335 137.387 54.0246C137.379 54.0147 137.374 54.0032 137.371 53.9909C137.369 53.9787 137.369 53.966 137.371 53.9537L137.753 50.8779C137.756 50.8511 137.768 50.8261 137.788 50.8078C137.809 50.7898 137.835 50.7805 137.863 50.7816H138.277C138.288 50.7811 138.3 50.7831 138.311 50.7876C138.321 50.7922 138.331 50.7991 138.338 50.8078C138.346 50.8177 138.351 50.829 138.354 50.8411C138.357 50.8532 138.357 50.8657 138.354 50.8779L138.322 51.1736C138.318 51.1906 138.32 51.2006 138.329 51.2021C138.337 51.2044 138.346 51.199 138.354 51.1867C138.443 51.0527 138.564 50.9426 138.706 50.8664C138.848 50.7902 139.007 50.7502 139.169 50.7501C139.283 50.7475 139.396 50.7715 139.499 50.8201V50.8201Z" fill="#3B3B3B"/>
<path d="M141.828 50.8201C141.841 50.8266 141.853 50.8366 141.86 50.8492C141.868 50.8617 141.873 50.8762 141.873 50.891C141.871 50.9086 141.867 50.926 141.86 50.9426L141.725 51.36C141.723 51.3778 141.715 51.3944 141.702 51.4063C141.689 51.4183 141.671 51.4246 141.653 51.4239C141.636 51.4243 141.618 51.4222 141.601 51.4178C141.535 51.3945 141.465 51.3836 141.395 51.3854C141.362 51.3848 141.329 51.3869 141.297 51.3916C141.108 51.3986 140.928 51.4726 140.79 51.6003C140.644 51.7334 140.553 51.9153 140.534 52.1109L140.301 53.9537C140.299 53.9802 140.287 54.0052 140.269 54.0246C140.26 54.0334 140.248 54.0402 140.236 54.0445C140.224 54.0489 140.211 54.0508 140.198 54.05H139.784C139.772 54.0517 139.759 54.0503 139.747 54.0458C139.735 54.0413 139.724 54.034 139.716 54.0245C139.707 54.0149 139.702 54.0035 139.699 53.9911C139.696 53.9788 139.696 53.9659 139.7 53.9537L140.081 50.8779C140.084 50.851 140.097 50.826 140.117 50.8078C140.138 50.7898 140.164 50.7805 140.192 50.7816H140.605C140.617 50.7811 140.628 50.7831 140.639 50.7876C140.65 50.7922 140.659 50.7991 140.667 50.8078C140.675 50.8176 140.68 50.829 140.683 50.8411C140.686 50.8532 140.686 50.8658 140.683 50.8779L140.651 51.1736C140.646 51.1906 140.649 51.2006 140.657 51.2021C140.666 51.2044 140.674 51.199 140.683 51.1867C140.772 51.0526 140.893 50.9425 141.035 50.8662C141.177 50.79 141.336 50.7501 141.498 50.7501C141.612 50.7475 141.725 50.7715 141.828 50.8201V50.8201Z" fill="#3B3B3B"/>
<path d="M142.487 53.8605C142.276 53.6935 142.136 53.4543 142.093 53.1898C142.065 53.048 142.052 52.9037 142.054 52.7593C142.054 52.6414 142.06 52.5237 142.074 52.4065C142.103 52.1408 142.173 51.881 142.28 51.6356C142.397 51.3633 142.593 51.1319 142.843 50.971C143.098 50.8095 143.395 50.726 143.697 50.7308C143.969 50.7213 144.237 50.8062 144.454 50.971C144.66 51.1371 144.799 51.3705 144.848 51.6295C144.875 51.7645 144.888 51.9022 144.887 52.04C144.887 52.1601 144.88 52.2801 144.867 52.3996C144.841 52.6722 144.772 52.939 144.661 53.1898C144.543 53.4629 144.347 53.696 144.098 53.8605C143.852 54.021 143.564 54.1049 143.27 54.1016C142.989 54.112 142.713 54.027 142.487 53.8605V53.8605ZM143.797 53.4239C143.939 53.3196 144.05 53.1787 144.117 53.0165C144.189 52.8215 144.236 52.6188 144.26 52.4127C144.277 52.224 144.285 52.0916 144.285 52.0145C144.285 51.9481 144.28 51.8818 144.272 51.8159C144.248 51.6583 144.169 51.514 144.05 51.4077C143.926 51.3086 143.771 51.2574 143.613 51.2637C143.446 51.2617 143.283 51.3121 143.147 51.4077C143.003 51.5113 142.891 51.6526 142.824 51.8159C142.752 52.0083 142.704 52.2087 142.681 52.4127C142.668 52.5301 142.662 52.6481 142.662 52.7662C142.662 52.8386 142.666 52.9217 142.675 53.0165C142.697 53.1731 142.775 53.3167 142.895 53.4208C143.018 53.5218 143.175 53.5744 143.334 53.5686C143.5 53.5706 143.662 53.5199 143.797 53.4239V53.4239Z" fill="#3B3B3B"/>
<path d="M145.935 53.9667L145.437 50.8908V50.8777C145.435 50.8647 145.436 50.8513 145.44 50.8388C145.444 50.8263 145.452 50.815 145.461 50.8056C145.47 50.7963 145.482 50.7893 145.494 50.7851C145.507 50.7809 145.52 50.7796 145.534 50.7815H145.961C145.973 50.7809 145.984 50.7826 145.995 50.7866C146.006 50.7905 146.016 50.7966 146.024 50.8044C146.032 50.8123 146.039 50.8217 146.044 50.8322C146.048 50.8427 146.051 50.854 146.051 50.8654L146.349 53.1573C146.353 53.1704 146.36 53.1765 146.368 53.1765C146.377 53.1765 146.383 53.1704 146.388 53.1573L147.267 50.8716C147.274 50.8476 147.288 50.8264 147.308 50.8113C147.328 50.7963 147.353 50.7882 147.378 50.7884H147.766C147.777 50.7877 147.789 50.7894 147.799 50.7932C147.81 50.7971 147.82 50.803 147.829 50.8108C147.837 50.8186 147.844 50.828 147.849 50.8384C147.854 50.8488 147.856 50.8601 147.856 50.8716L148.186 53.1634C148.19 53.1765 148.197 53.1827 148.205 53.1827C148.214 53.1827 148.22 53.1765 148.225 53.1634L149.117 50.8654C149.123 50.8413 149.138 50.82 149.158 50.8049C149.178 50.7897 149.202 50.7815 149.227 50.7815L149.654 50.7884C149.668 50.7852 149.682 50.7864 149.695 50.7919C149.708 50.7974 149.719 50.8069 149.727 50.819C149.734 50.8311 149.737 50.8452 149.736 50.8592C149.734 50.8732 149.729 50.8865 149.719 50.897L148.451 53.9667C148.444 53.9914 148.429 54.0129 148.408 54.028C148.386 54.043 148.361 54.0507 148.335 54.0499H147.895C147.835 54.0499 147.802 54.0221 147.798 53.9667L147.461 51.8411C147.457 51.8281 147.451 51.8219 147.442 51.8219C147.434 51.8219 147.427 51.828 147.423 51.8411L146.588 53.9667C146.582 53.9906 146.567 54.0118 146.548 54.0269C146.528 54.0419 146.503 54.05 146.479 54.0499H146.032C146.02 54.0517 146.007 54.0509 145.996 54.0476C145.984 54.0442 145.973 54.0384 145.964 54.0305C145.955 54.0226 145.947 54.0128 145.942 54.0018C145.937 53.9907 145.935 53.9788 145.935 53.9667V53.9667Z" fill="#3B3B3B"/>
</svg>
